<svg width="28" height="25" viewBox="0 0 28 25" fill="none" xmlns="http://www.w3.org/2000/svg">
<path d="M22.085 1V11" stroke="#423977" stroke-width="2" stroke-linecap="round" stroke-linejoin="round"/>
<path d="M27 6.08496L17 6.08496" stroke="#423977" stroke-width="2" stroke-linecap="round" stroke-linejoin="round"/>
<path d="M8.44717 24C6.99702 24 5.54687 24.0469 4.09672 23.9843C3.49249 23.953 2.85805 23.7967 2.29913 23.5308C1.45321 23.1085 1.03025 22.3891 1.00004 21.3569C0.96983 19.6679 1.1511 18.0257 1.98191 16.5869C2.34445 15.9613 2.96379 15.4452 3.56802 15.0542C4.12693 14.6789 4.73116 14.8509 5.29007 15.3045C7.10276 16.7746 9.5801 16.8371 11.423 15.4921C12.6768 14.5851 14.0212 14.7884 14.7463 16.1959C15.2599 17.1968 15.5318 18.3385 15.8641 19.4489C15.9849 19.8399 15.9547 20.2622 15.9698 20.6844C16.0907 22.7488 15.0182 23.953 13.0091 24C11.4985 24.0156 9.97285 23.9843 8.44717 24C8.44717 23.9843 8.44717 23.9843 8.44717 24Z" fill="#423977"/>
<path d="M8.47741 14.4764C6.21155 14.4608 4.36865 12.5684 4.36865 10.2538C4.36865 7.93913 6.22666 6.03113 8.47741 5.99985C10.7584 5.98421 12.6013 7.90785 12.6013 10.285C12.5862 12.6309 10.7584 14.4764 8.47741 14.4764Z" fill="#423977"/>
</svg>
