<svg width="356" height="360" viewBox="0 0 356 360" fill="none" xmlns="http://www.w3.org/2000/svg">
<path d="M340.089 325.697C339.479 328.036 339.009 330.251 338.4 332.59C335.44 346.004 330.628 347.708 316.253 345.703C293.872 342.715 280.947 327.737 268.028 312.496C261.701 305.015 253.986 298.51 249.341 289.278C244.583 308.656 240.643 327.948 229.694 344.732C227.523 344.476 226.185 343.609 225.156 341.441C223.36 337.514 221.012 333.82 218.807 329.87C218.243 310.981 220.254 292.501 224.708 274.293C226.393 267.532 228.483 260.925 230.976 254.474C233.628 247.24 237.896 245.505 245.299 248.564C250.009 250.546 254.422 253.435 258.981 255.936C264.731 259.692 270.48 263.448 276.094 267.196C283.666 273.957 290.816 281.221 300.221 285.713C311.956 294.557 322.427 304.779 333.6 314.251C337.722 317.782 339.398 321.174 340.089 325.697Z" fill="#418E89"/>
<path d="M274.885 267.462C269.101 263.676 263.316 259.891 257.668 256.114C256.703 246.491 253.257 237.391 252.428 227.776C252.232 224.974 251.899 222.165 252.117 219.254C256.996 221.127 261.846 224.061 267.404 221.19C267.807 221.478 268.21 221.767 268.609 222.189C267.944 226.403 271.415 229.657 272.269 233.427C272.757 235.581 273.212 238.929 276.509 238.586C279.122 238.203 280.419 235.886 280.086 233.076C280.914 232.858 282.145 232.928 282.574 232.288C289.721 221.534 301.536 215.299 309.756 205.403C320.097 202.937 330.812 201.821 340.136 196.507C343.589 205.342 348.287 213.716 349.663 223.362C350.111 226.975 349.742 230.409 350.056 233.882C350.363 237.62 350.776 236.882 350.816 239.87C351.471 243.723 351.82 253.118 350.255 267.569C349.861 271.209 349.003 276.743 348.811 278.726C348.054 291.173 346.067 303.551 346.268 316.054C346.405 320.978 345.189 325.294 339.272 326.285C338.577 321.727 336.891 318.309 332.877 314.89C321.636 305.345 311.102 295.043 299.296 286.13C307.818 275.189 308.079 265.769 300.121 256.412C299.382 253.446 302.726 246.461 294.824 249.864C289.971 251.978 285.488 255.576 283.423 260.906C279.161 261.46 275.964 263.138 274.885 267.462Z" fill="#8071A4"/>
<path d="M342.57 197.575C333.276 202.742 322.588 203.987 312.277 206.446C306.944 206.672 301.475 206.89 296.146 206.983C292.593 207.045 289.475 206.205 287.522 202.781C285.568 199.357 288.347 197.66 289.913 195.364C292.477 191.535 294.906 187.699 295.174 182.944C295.848 178.345 295.973 173.847 294.871 169.279C291.7 155.582 289.009 154.103 278.639 153.776C267.457 148.235 266.128 132.126 275.757 124.726C297.389 108.072 319.086 118.586 333.118 134.625C341.19 143.963 345.941 154.835 350.822 165.979C357.24 180.789 352.497 189.263 342.57 197.575Z" fill="#423977"/>
<path d="M218.95 331.982C221.019 335.776 223.362 339.454 225.288 343.502C226.315 345.661 227.649 346.524 229.816 346.778C230.099 351.258 227.892 352.446 223.565 351.675C218.696 350.874 213.68 350.458 208.814 349.526C201.514 348.193 195.174 341.662 193.735 334.753C192.664 329.31 197.386 325.639 204.287 326.686C209.563 327.511 214.396 329.623 218.95 331.982Z" fill="#3D3C3F"/>
<path d="M268.813 222.096C268.41 221.808 268.006 221.519 267.607 221.097C264.826 212.697 259.808 205.897 252.835 200.448C250.217 196.045 247.462 191.634 244.981 187.239C243.809 185.045 241.146 182.235 244.485 180.432C247.546 178.745 249.517 181.782 251.107 183.734C254.945 188.605 258.502 193.727 262.2 198.723C263.979 203.743 264.227 209.606 270.605 211.831C271.359 214.266 271.981 216.562 272.735 218.997C272.269 220.965 271.134 222.362 268.813 222.096Z" fill="white"/>
<path d="M278.689 152.8C289.123 153.262 291.831 154.749 295.026 168.386C296.135 172.978 296.01 177.501 295.331 182.124C289.887 179.136 285.066 177.639 283.387 172.342C282.916 171.511 281.652 171.561 281.353 170.549C281.005 169.373 282.143 167.362 282.089 165.491C281.9 162.417 279.424 156.039 278.689 152.8Z" fill="#CECDCE"/>
<path d="M252.685 200.573C259.645 206.148 264.656 212.94 267.436 221.198C262.02 224.075 257.176 221.143 252.166 219.264C250.017 212.901 248.96 206.6 252.685 200.573Z" fill="#CECDCE"/>
<path d="M268.156 222.129C270.49 222.262 271.625 220.994 272.092 219.022C276.805 222.622 275.8 229.094 279.677 233.046C280.011 235.863 278.706 238.321 276.086 238.571C272.773 239.048 272.32 235.558 271.83 233.398C270.973 229.618 267.485 226.488 268.156 222.129Z" fill="#CECDCE"/>
<path d="M270.42 211.721C263.893 209.485 263.645 203.614 262 198.595C266.618 195.397 268.171 198.814 269.86 202.238C271.557 205.396 271.746 208.469 270.42 211.721Z" fill="#CECDCE"/>
<path d="M300.32 256.417C298.379 257.498 297.102 259.279 295.828 260.927C291.306 266.494 289.531 266.525 283.679 261.028C285.737 255.718 290.204 252.133 295.039 250.026C302.915 246.504 299.447 253.455 300.32 256.417Z" fill="#CECDCE"/>
<path d="M86.5864 39.4421C88.3936 54.7984 90.1902 70.0645 91.9953 85.4028C76.6543 87.2082 61.3133 89.0136 45.9001 90.8275C45.846 90.5232 45.7918 90.2189 45.7579 89.9305C45.164 84.8839 44.5903 79.8531 43.9602 74.8107C43.8563 73.9275 44.1752 73.5245 44.8927 73.2391C46.2236 72.717 47.4033 73.0898 48.4968 73.82C50.5244 75.1712 52.7117 75.6995 55.1426 75.3403C59.6611 74.6624 63.024 70.3927 62.6479 65.7955C62.2739 61.2163 58.3677 57.6011 53.8207 57.5697C51.0902 57.5621 48.8302 58.5956 46.9739 60.5683C45.9161 61.6978 44.6766 62.3736 43.0941 61.8472C42.7901 61.755 42.4321 61.3586 42.3981 61.0702C41.7405 55.7935 41.1371 50.5104 40.5156 45.2294C40.505 45.1393 40.5326 45.063 40.5635 44.8583C40.8888 44.8201 41.2501 44.7775 41.5935 44.7371C46.5264 44.1566 51.4594 43.5761 56.3923 42.9955C58.38 42.7616 59.2954 41.6671 59.2183 39.6113C59.1635 37.9 58.3135 36.593 57.099 35.4568C53.6189 32.1934 54.088 26.5283 58.0479 23.906C60.9713 21.9722 64.8475 22.3749 67.3786 24.8911C69.8046 27.2918 70.2181 31.1171 68.3276 34.044C67.4737 35.3505 66.8633 36.7015 67.1222 38.2791C67.2262 38.8516 67.4248 39.4495 67.7053 39.9647C68.2545 41.0513 69.0633 41.5409 70.4164 41.3634C75.4652 40.6778 80.5129 40.1386 85.5724 39.5432C85.8817 39.5251 86.2069 39.4868 86.5864 39.4421Z" fill="white"/>
<path d="M121.565 126.616C132.205 124.017 142.782 121.433 153.409 118.838C156.006 129.467 158.602 140.096 161.21 150.775C161.001 150.839 160.792 150.904 160.592 150.952C157.095 151.806 153.608 152.645 150.118 153.524C149.506 153.673 149.195 153.484 148.932 153.004C148.45 152.114 148.61 151.252 149.029 150.42C149.803 148.878 149.986 147.295 149.523 145.617C148.655 142.499 145.363 140.504 142.163 141.166C138.976 141.825 136.773 144.884 137.144 148.083C137.375 150.003 138.297 151.503 139.844 152.637C140.73 153.283 141.312 154.096 141.079 155.254C141.04 155.476 140.793 155.762 140.593 155.811C136.94 156.729 133.278 157.611 129.619 158.504C129.557 158.52 129.501 158.507 129.354 158.503C129.299 158.277 129.238 158.027 129.18 157.789C128.345 154.371 127.51 150.954 126.675 147.536C126.339 146.159 125.49 145.61 124.052 145.842C122.853 146.028 122.008 146.739 121.314 147.691C119.321 150.42 115.298 150.58 113.112 148.023C111.499 146.135 111.447 143.375 112.997 141.378C114.475 139.465 117.129 138.843 119.35 139.919C120.342 140.406 121.345 140.719 122.431 140.4C122.825 140.278 123.228 140.086 123.566 139.845C124.282 139.364 124.557 138.754 124.315 137.818C123.396 134.327 122.58 130.825 121.724 127.32C121.685 127.104 121.63 126.879 121.565 126.616Z" fill="white"/>
<path d="M226.048 136.066C232.211 141.846 238.337 147.592 244.493 153.365C238.719 159.521 232.945 165.678 227.144 171.863C227.014 171.755 226.884 171.647 226.768 171.539C224.743 169.639 222.732 167.739 220.693 165.854C220.339 165.522 220.33 165.241 220.529 164.869C220.901 164.183 221.526 163.923 222.24 163.843C223.563 163.693 224.662 163.144 225.552 162.138C227.201 160.263 227.102 157.295 225.326 155.507C223.558 153.725 220.652 153.59 218.742 155.179C217.598 156.137 217.018 157.364 216.937 158.842C216.893 159.687 216.613 160.406 215.766 160.743C215.607 160.812 215.317 160.772 215.202 160.663C213.069 158.69 210.956 156.695 208.837 154.708C208.801 154.674 208.786 154.632 208.726 154.536C208.849 154.405 208.985 154.26 209.114 154.123C210.971 152.143 212.827 150.163 214.684 148.184C215.432 147.386 215.429 146.606 214.673 145.774C214.047 145.079 213.232 144.832 212.324 144.785C209.721 144.647 207.922 142.115 208.653 139.625C209.194 137.787 210.955 136.591 212.899 136.751C214.758 136.899 216.278 138.352 216.518 140.241C216.622 141.087 216.842 141.867 217.506 142.435C217.751 142.637 218.045 142.817 218.343 142.934C218.956 143.194 219.466 143.114 219.969 142.563C221.837 140.499 223.756 138.496 225.66 136.466C225.783 136.349 225.905 136.219 226.048 136.066Z" fill="white"/>
</svg>
