<svg width="463" height="527" viewBox="0 0 463 527" fill="none" xmlns="http://www.w3.org/2000/svg">
<path d="M76.1611 252.888C81.4994 251.336 86.717 249.854 91.8829 248.316C97.0719 246.736 102.219 245.133 107.379 243.454C108.216 243.175 108.976 242.634 109.704 242.103C111.03 241.077 111.296 239.685 110.341 238.221C109.72 237.299 108.913 236.467 108.148 235.659C105.09 232.425 103.327 228.672 103.428 224.163C103.52 217.56 108.787 212.118 115.548 211.574C122.062 211.031 128.182 215.685 129.407 222.083C129.966 224.977 129.938 227.794 129.178 230.645C128.15 234.392 129.975 236.421 133.833 235.726C136.555 235.254 139.234 234.51 141.88 233.777C149.213 231.679 156.528 229.517 163.819 227.397C164.405 227.226 164.991 227.056 165.642 226.866C165.835 227.166 166.032 227.357 166.108 227.62C168.95 237.635 171.75 247.627 174.559 257.652C174.636 257.915 174.721 258.21 174.765 258.481C175.086 260.556 174.785 260.857 172.765 260.343C167.851 259.106 163.134 259.518 158.668 261.883C153.106 264.851 149.832 271.562 150.786 277.754C151.846 284.555 156.674 289.87 163.112 291.126C169.89 292.461 175.361 289.91 180.022 285.177C181.471 283.725 182.049 283.77 182.663 285.76C185.837 296.07 188.882 306.418 191.959 316.756C191.987 316.854 191.918 316.981 191.864 317.281C191.376 317.423 190.79 317.593 190.204 317.764C181.806 320.206 173.408 322.648 165.02 325.123C163.132 325.672 161.24 326.329 159.541 327.285C156.626 328.915 156.394 331.151 158.897 333.445C161.109 335.467 162.825 337.848 163.849 340.642C165.742 345.815 164.869 350.584 161.149 354.545C157.596 358.351 153.02 359.61 147.988 358.088C142.69 356.5 139.479 352.742 138.693 347.247C138.345 344.718 138.594 342.051 139.062 339.533C139.753 335.599 138.049 333.5 134.17 334.486C127.388 336.174 120.673 338.091 113.949 339.975C110.163 341.04 106.364 342.181 102.621 343.269C100.724 340.266 93.1169 311.801 93.6612 309.545C95.2936 309.817 96.9316 310.229 98.5909 310.351C105.699 310.879 111.564 308.711 115.469 302.35C118.576 297.252 118.207 290.036 114.242 284.898C110.347 279.881 105.087 277.82 98.7965 279.009C94.7435 279.761 91.2806 281.693 88.4538 284.719C87.9727 285.25 87.3884 285.668 86.6105 286.392C85.9498 285.091 85.2256 284.058 84.892 282.911C82.0055 273.228 79.1421 263.503 76.2883 253.811C76.17 253.525 76.2104 253.3 76.1611 252.888Z" fill="white"/>
<path d="M64.8479 369.908C69.2902 369.27 72.2861 371.453 74.1645 375.144C77.6983 382.208 81.1897 382.501 87.1185 376.195C92.0393 370.96 95.1033 364.902 96.9849 358.104C98.3664 359.393 100.181 359.802 101.967 360.281C105.814 361.258 108.121 363.91 109.571 367.608C109.51 379.268 104.105 389.973 100.14 400.795C93.5657 418.632 84.5174 435.426 74.0729 451.483C71.2907 449.297 67.5947 449.327 64.4128 448.111C66.9543 441.946 71.6282 436.622 73.3053 430.149C76.3023 418.583 82.0065 407.668 83.5595 395.825C84.1569 391.111 83.7804 386.526 84.7151 381.853C83.8507 381.545 83.6269 382.259 83.3035 382.7C71.9098 397.623 58.4424 409.501 41.9096 416.787C40.8546 417.284 39.8042 417.942 38.7824 418.53C37.844 415.652 36.0736 413.589 33.4427 412.411C38.8575 407.352 44.2722 402.293 48.7995 396.122C54.7298 387.75 60.6602 379.379 64.8479 369.908Z" fill="#418E89"/>
<path d="M116.882 296.455C115.257 296.886 113.692 297.34 112.067 297.771C116.48 290.658 119.514 283.202 119.549 274.974C119.602 267.38 124.701 264.518 130.193 261.877C129.653 265.919 129.26 269.937 131.293 273.42C132.324 275.128 132.23 277.056 130.557 278.961C128.944 280.889 128.419 283.367 127.561 285.646C126.675 287.994 125.211 288.876 123.133 289.065C118.323 289.521 118.323 289.521 117.369 294.748C117.295 295.27 117.044 295.886 116.882 296.455Z" fill="#CECDCE"/>
<path d="M67.727 447.28C71.0652 448.474 74.8787 448.515 77.7714 450.79C79.8738 453.196 82.4656 454.95 85.0575 456.704C87.0323 457.99 87.4311 459.704 86.2038 462.325C84.9469 465.019 83.5001 464.419 81.5541 464.136C75.7755 463.145 70.358 461.456 66.3211 456.951C63.296 453.388 63.634 450.779 67.727 447.28Z" fill="#3D3C3F"/>
<path d="M33.1417 410.165C35.7601 411.34 37.5505 413.328 38.456 416.268C37.478 421.386 37.9325 426.621 35.7347 431.619C35.1379 433.07 34.6447 434.954 32.9802 435.23C31.2542 435.484 30.3003 434.033 29.4409 432.695C26.8249 428.43 27.5251 415.763 30.4933 411.119C31.3974 409.778 32.1916 409.904 33.1417 410.165Z" fill="#3D3C3F"/>
<path d="M171.762 300.04C173.992 297.251 171.756 296.171 170.593 294.641C171.357 293.273 171.983 291.75 172.862 290.443C173.742 289.136 174.831 287.854 175.984 286.858C177.994 285.131 182.602 284.504 183.229 285.923C184.23 288.545 182.863 290.86 180.939 292.968C179.146 294.975 176.565 295.985 175.321 298.615C174.437 298.995 173.516 299.44 172.574 299.79C172.349 299.925 172.066 300.03 171.762 300.04Z" fill="#CECDCE"/>
<path d="M108.774 369.682C106.97 365.918 104.326 367.12 100.158 365.913C98.2885 365.354 96.2587 360.831 94.6967 359.466C95.5505 355.409 97.5976 352.269 101.226 350.04C107.129 346.295 109.435 340.255 110.797 333.855C111.581 330.386 109.909 327.288 107.855 324.582C105.584 321.639 103.219 318.737 101.531 315.479C98.7906 310.127 99.2536 306.69 103.708 302.7C106.079 300.53 108.711 298.689 111.233 296.73C112.98 296.397 114.66 296.038 116.407 295.706C122.695 298.028 129.198 299.587 135.409 302.112C137.295 302.831 139.699 302.596 141.783 302.391C148.836 301.7 156.185 302.659 162.755 298.785C164.227 297.962 165.781 297.325 166.556 295.699C167.486 295.285 168.39 294.938 169.319 294.523C170.476 294.119 171.563 294.303 172.538 294.983C174.1 296.348 176.727 297.35 174.85 300.248C172.294 305.731 168.237 309.488 162.509 311.762C151.585 316.128 140.127 317.445 128.634 319.056C127.807 319.202 126.938 319.255 126.137 319.333C122.274 319.551 120.883 321.173 120.138 325.348C118.591 333.446 117.556 341.817 114.383 349.525C113.163 352.519 112.838 355.394 113.641 358.545C114.37 361.284 114.34 364.194 113.196 366.987C112.242 369.084 111.098 370.262 108.774 369.682Z" fill="#8071A4"/>
<path d="M63.1488 370.035C60.2681 370.935 56.9661 370.521 54.7715 373.451C53.8309 374.706 52.5593 373.606 51.8758 372.576C48.5989 367.866 43.8558 366.594 38.4052 366.974C32.0884 367.408 30.2004 365.304 31.2207 359.004C31.6218 356.542 32.4511 354.168 32.9193 351.732C33.9227 346.887 32.2053 342.925 28.5811 341.542C22.9434 339.39 19.1196 340.545 16.259 345.22C15.6478 346.217 15.6786 348.151 13.9142 347.939C12.5109 347.788 12.0067 346.289 11.3745 345.125C9.37886 341.288 8.7132 337.189 9.09933 332.954C9.5597 327.516 11.7492 322.585 14.2486 317.849C18.0825 310.624 24.9761 307.873 32.54 306.992C38.8922 306.263 45.2956 305.401 51.7652 306.178C56.8987 306.83 61.3373 304.065 65.2134 301.161C74.587 294.128 82.2704 285.68 85.5924 273.954C87.7033 266.609 91.4312 260.266 97.003 254.934C104.663 247.554 119.177 245.789 127.114 251.586C129.099 253.035 130.45 254.935 131.286 257.176C132.081 259.325 131.936 261.115 130.01 262.533C124.23 264.786 118.842 267.42 119.31 275.058C119.842 283.334 117.117 290.675 112.731 297.536C110.214 299.497 107.563 301.407 105.221 303.512C100.776 307.505 100.31 310.942 103.037 316.288C104.758 319.636 107.138 322.466 109.332 325.38C111.443 328.108 113.04 331.178 112.255 334.646C110.822 341.019 108.584 347.085 102.693 350.834C99.1406 353.092 97.0289 356.208 96.173 360.264C94.6378 366.905 91.7957 372.741 86.9242 377.648C81.122 383.584 77.1343 383.366 72.9223 376.069C70.9938 372.257 67.8257 369.667 63.1488 370.035Z" fill="#423977"/>
<path d="M376.303 216.14C370.36 218.865 364.545 221.487 358.8 224.166C353.036 226.897 347.324 229.649 341.61 232.49C340.684 232.958 339.893 233.719 339.137 234.463C337.772 235.884 337.702 237.55 339.066 239.088C339.947 240.053 341.028 240.882 342.057 241.691C346.172 244.927 348.869 248.99 349.527 254.252C350.557 261.949 345.368 269.187 337.596 270.984C330.111 272.738 322.191 268.377 319.664 261.145C318.515 257.874 318.063 254.593 318.455 251.145C319.007 246.608 316.534 244.563 312.166 246.036C309.08 247.053 306.092 248.38 303.14 249.689C294.969 253.391 286.833 257.167 278.716 260.889C278.063 261.188 277.411 261.487 276.686 261.819C276.41 261.504 276.148 261.315 276.014 261.023C270.984 249.861 266.006 238.719 261.011 227.54C260.877 227.248 260.727 226.92 260.629 226.611C259.898 224.253 260.197 223.851 262.636 224.101C268.565 224.694 273.982 223.403 278.77 219.882C284.73 215.471 287.382 207.101 285.207 200.061C282.803 192.332 276.27 186.981 268.565 186.628C260.45 186.242 254.524 190.152 249.917 196.46C248.482 198.398 247.801 198.445 246.744 196.236C241.276 184.789 235.952 173.275 230.593 161.778C230.542 161.669 230.601 161.509 230.612 161.151C231.156 160.902 231.808 160.603 232.46 160.304C241.809 156.016 251.159 151.729 260.491 147.406C262.593 146.442 264.681 145.352 266.492 143.947C269.603 141.549 269.488 138.908 266.182 136.671C263.26 134.698 260.854 132.225 259.181 129.15C256.088 123.458 256.282 117.76 259.928 112.512C263.406 107.472 268.513 105.219 274.629 106.124C281.066 107.058 285.449 110.878 287.309 117.134C288.149 120.017 288.319 123.163 288.208 126.173C288.081 130.868 290.426 133.017 294.769 131.202C302.367 128.071 309.849 124.684 317.347 121.334C321.568 119.443 325.791 117.462 329.958 115.551C332.682 118.718 346.433 150.523 346.188 153.241C344.243 153.206 342.266 153.008 340.315 153.152C331.954 153.762 325.504 157.294 322.057 165.366C319.321 171.832 320.992 180.163 326.49 185.458C331.885 190.624 338.358 192.116 345.472 189.649C350.058 188.076 353.754 185.233 356.521 181.226C356.989 180.526 357.597 179.938 358.377 178.962C359.37 180.361 360.391 181.439 360.976 182.716C366.001 193.484 371.007 204.304 375.996 215.088C376.183 215.4 376.174 215.669 376.303 216.14Z" fill="white"/>
<path d="M388.736 97.9094C392.123 96.8513 396.006 97.3386 398.587 93.8928C399.694 92.416 401.189 93.7101 401.993 94.9211C405.847 100.461 411.425 101.957 417.834 101.509C425.263 100.999 427.483 103.474 426.284 110.883C425.812 113.777 424.837 116.57 424.286 119.434C423.106 125.132 425.126 129.792 429.388 131.418C436.018 133.948 440.515 132.59 443.879 127.092C444.598 125.92 444.561 123.645 446.636 123.895C448.287 124.072 448.88 125.836 449.623 127.205C451.97 131.717 452.753 136.537 452.299 141.518C451.757 147.912 449.182 153.712 446.243 159.281C441.734 167.778 433.627 171.014 424.732 172.05C417.262 172.906 409.731 173.921 402.123 173.006C396.086 172.24 390.866 175.492 386.308 178.907C375.284 187.178 366.248 197.112 362.341 210.903C359.859 219.541 355.475 227 348.922 233.271C339.914 241.949 322.845 244.026 313.511 237.208C311.177 235.504 309.588 233.27 308.605 230.634C307.67 228.107 307.841 226.002 310.105 224.334C316.903 221.684 323.24 218.586 322.689 209.605C322.063 199.872 325.267 191.238 330.426 183.17C333.386 180.864 336.504 178.618 339.257 176.142C344.486 171.446 345.033 167.405 341.826 161.117C339.802 157.18 337.004 153.851 334.423 150.425C331.94 147.217 330.063 143.607 330.986 139.528C332.671 132.033 335.303 124.9 342.23 120.49C346.409 117.835 348.892 114.171 349.898 109.401C351.704 101.59 355.046 94.7277 360.775 88.9568C367.599 81.976 372.095 82.5163 377.048 91.098C379.316 95.5805 383.235 98.3422 388.736 97.9094Z" fill="#423977"/>
<path d="M389.145 98.3174C383.645 98.7502 379.725 95.9885 377.081 91.5433C372.098 83.0405 367.711 82.4514 360.809 89.4021C355.08 95.173 351.737 102.036 349.932 109.846C348.102 108.244 345.802 107.637 343.531 106.952C338.645 105.539 335.549 102.278 333.439 97.8556C332.579 84.235 338.473 72.1071 342.56 59.7413C349.342 39.3622 359.301 20.376 371.063 2.34943C374.716 5.09968 379.332 5.32423 383.406 6.9695C380.725 13.9941 375.312 19.8855 373.736 27.3318C370.92 40.6345 364.669 52.9877 363.679 66.7162C363.311 72.182 364.15 77.5659 363.357 82.9601C364.462 83.3818 364.685 82.5624 365.053 82.0701C378.093 65.4353 393.969 52.5051 414.045 45.1563C415.323 44.6496 416.583 43.9549 417.813 43.3391C419.216 46.7684 421.595 49.3036 424.977 50.8658C418.617 56.3957 412.256 61.9257 407.094 68.8172C400.356 78.1815 393.617 87.5458 389.145 98.3174Z" fill="#418E89"/>
<path d="M333.488 97.5566C335.598 101.979 338.694 105.24 343.58 106.653C345.771 107.308 348.151 107.945 349.981 109.547C348.974 114.317 346.57 118.011 342.312 120.637C335.385 125.046 332.674 132.15 331.068 139.675C330.145 143.753 332.101 147.393 334.505 150.571C337.165 154.028 339.933 157.435 341.908 161.264C345.115 167.551 344.568 171.592 339.339 176.288C336.556 178.843 333.468 181.01 330.508 183.317C328.459 183.71 326.489 184.134 324.44 184.527C317.07 181.805 309.447 179.981 302.167 177.022C299.957 176.178 297.137 176.458 294.693 176.701C286.422 177.523 277.806 176.406 270.097 180.969C268.371 181.937 266.547 182.688 265.636 184.601C264.546 185.089 263.485 185.498 262.395 185.986C261.038 186.463 259.763 186.248 258.621 185.45C256.791 183.848 253.713 182.673 255.918 179.265C258.922 172.815 263.684 168.394 270.403 165.713C283.218 160.567 296.655 159.004 310.133 157.094C311.103 156.922 312.122 156.859 313.062 156.765C317.592 156.505 319.225 154.596 320.104 149.687C321.929 140.166 323.153 130.324 326.884 121.259C328.318 117.737 328.704 114.358 327.766 110.654C326.915 107.436 326.954 104.015 328.298 100.73C329.42 98.2647 330.763 96.8783 333.488 97.5566Z" fill="#8071A4"/>
<path d="M324.061 184.448C326.11 184.055 328.08 183.631 330.129 183.238C325.05 191.336 321.766 199.939 322.392 209.673C322.943 218.654 316.637 221.673 309.808 224.402C310.172 219.658 310.348 214.932 307.456 210.664C305.994 208.569 305.958 206.294 307.948 204.16C309.859 201.996 310.331 199.102 311.246 196.467C312.191 193.753 313.996 192.814 316.647 192.741C322.778 192.549 322.778 192.549 323.575 186.433C323.628 185.82 323.899 185.11 324.061 184.448Z" fill="#CECDCE"/>
<path d="M258.057 178.915C256.005 182.233 258.929 183.262 260.666 184.885C260.055 186.484 259.644 188.247 258.881 189.789C258.119 191.33 257.098 192.861 255.936 194.076C253.911 196.182 248.522 197.268 247.453 195.725C245.666 192.861 246.788 190.148 248.626 187.62C250.329 185.216 253.2 183.868 254.105 180.81C255.081 180.31 256.087 179.733 257.139 179.262C257.379 179.092 257.694 178.951 258.057 178.915Z" fill="#CECDCE"/>
<path d="M329.879 353.709C325.138 351.535 320.499 349.443 315.916 347.307C311.318 345.127 306.761 342.932 302.203 340.666C301.465 340.292 300.833 339.686 300.231 339.092C299.141 337.959 299.086 336.63 300.173 335.402C300.876 334.632 301.739 333.971 302.56 333.326C305.843 330.745 307.994 327.504 308.519 323.306C309.341 317.165 305.201 311.392 299.001 309.958C293.03 308.559 286.712 312.038 284.696 317.807C283.779 320.416 283.419 323.034 283.732 325.784C284.172 329.403 282.199 331.035 278.714 329.86C276.253 329.048 273.869 327.99 271.514 326.946C264.996 323.992 258.506 320.981 252.03 318.011C251.51 317.773 250.99 317.534 250.411 317.269C250.191 317.52 249.982 317.671 249.875 317.904C245.862 326.808 241.891 335.697 237.907 344.615C237.8 344.848 237.68 345.109 237.602 345.356C237.019 347.237 237.257 347.558 239.203 347.358C243.933 346.885 248.254 347.915 252.074 350.723C256.828 354.242 258.944 360.919 257.208 366.535C255.291 372.702 250.079 376.97 243.933 377.252C237.459 377.559 232.732 374.44 229.057 369.408C227.912 367.862 227.369 367.824 226.526 369.587C222.163 378.719 217.917 387.903 213.641 397.075C213.601 397.162 213.648 397.289 213.656 397.575C214.09 397.774 214.61 398.013 215.131 398.251C222.589 401.671 230.047 405.091 237.492 408.54C239.169 409.309 240.834 410.179 242.279 411.299C244.761 413.212 244.669 415.319 242.032 417.104C239.701 418.678 237.781 420.651 236.447 423.104C233.98 427.644 234.135 432.189 237.043 436.376C239.817 440.397 243.891 442.194 248.77 441.472C253.905 440.727 257.402 437.68 258.886 432.689C259.555 430.389 259.692 427.88 259.603 425.479C259.501 421.733 261.372 420.019 264.836 421.467C270.898 423.965 276.866 426.666 282.848 429.339C286.215 430.847 289.583 432.427 292.908 433.952C295.081 431.425 306.051 406.053 305.855 403.885C304.303 403.913 302.726 404.071 301.17 403.956C294.501 403.47 289.355 400.652 286.605 394.212C284.422 389.055 285.755 382.409 290.141 378.185C294.445 374.063 299.609 372.873 305.284 374.841C308.942 376.096 311.89 378.364 314.098 381.561C314.472 382.119 314.956 382.588 315.579 383.367C316.371 382.251 317.185 381.391 317.652 380.372C321.661 371.783 325.654 363.151 329.634 354.548C329.783 354.299 329.776 354.085 329.879 353.709Z" fill="white"/>
<path d="M339.796 448.026C342.499 448.87 345.597 448.481 347.656 451.23C348.538 452.408 349.731 451.375 350.372 450.409C353.446 445.99 357.896 444.797 363.01 445.154C368.936 445.561 370.707 443.587 369.75 437.676C369.373 435.367 368.595 433.14 368.156 430.855C367.215 426.309 368.826 422.592 372.226 421.295C377.515 419.276 381.102 420.36 383.786 424.746C384.359 425.681 384.33 427.495 385.986 427.296C387.302 427.155 387.775 425.748 388.368 424.656C390.241 421.056 390.865 417.211 390.503 413.238C390.071 408.137 388.017 403.51 385.672 399.067C382.075 392.289 375.608 389.708 368.512 388.881C362.553 388.198 356.545 387.389 350.476 388.118C345.66 388.73 341.496 386.135 337.86 383.411C329.066 376.813 321.858 368.888 318.741 357.887C316.761 350.996 313.263 345.046 308.036 340.044C300.85 333.12 287.233 331.464 279.787 336.903C277.926 338.262 276.658 340.044 275.874 342.147C275.128 344.163 275.264 345.842 277.07 347.173C282.494 349.287 287.548 351.758 287.109 358.922C286.61 366.687 289.166 373.574 293.281 380.01C295.642 381.85 298.13 383.642 300.326 385.617C304.497 389.363 304.934 392.587 302.376 397.603C300.761 400.744 298.528 403.399 296.47 406.132C294.489 408.691 292.991 411.571 293.728 414.825C295.072 420.804 297.172 426.495 302.698 430.012C306.031 432.13 308.012 435.053 308.815 438.858C310.255 445.089 312.921 450.564 317.492 455.167C322.935 460.736 326.521 460.305 330.473 453.459C332.282 449.883 335.409 447.68 339.796 448.026Z" fill="#423977"/>
<path d="M340.123 447.7C335.735 447.355 332.609 449.558 330.5 453.104C326.524 459.887 323.025 460.357 317.518 454.812C312.948 450.208 310.282 444.734 308.842 438.503C307.382 439.781 305.547 440.265 303.736 440.812C299.838 441.939 297.368 444.541 295.685 448.068C294.999 458.934 299.701 468.609 302.96 478.473C308.371 494.73 316.316 509.876 325.699 524.257C328.612 522.063 332.295 521.884 335.545 520.571C333.407 514.967 329.088 510.268 327.831 504.327C325.585 493.715 320.597 483.861 319.808 472.909C319.515 468.549 320.184 464.254 319.552 459.951C320.433 459.615 320.61 460.268 320.905 460.661C331.307 473.931 343.971 484.246 359.986 490.108C361.006 490.512 362.011 491.067 362.992 491.558C364.112 488.822 366.009 486.8 368.708 485.554C363.634 481.142 358.56 476.731 354.442 471.233C349.066 463.763 343.691 456.293 340.123 447.7Z" fill="#418E89"/>
<path d="M295.724 448.307C297.407 444.779 299.876 442.177 303.774 441.05C305.522 440.527 307.42 440.019 308.88 438.741C308.077 434.936 306.159 431.989 302.763 429.895C297.237 426.377 295.074 420.711 293.793 414.708C293.057 411.454 294.617 408.55 296.535 406.015C298.657 403.258 300.865 400.539 302.441 397.485C304.999 392.47 304.562 389.246 300.391 385.5C298.171 383.462 295.708 381.733 293.347 379.893C291.712 379.579 290.14 379.241 288.506 378.927C282.626 381.099 276.545 382.554 270.738 384.915C268.975 385.588 266.725 385.364 264.776 385.17C258.178 384.514 251.305 385.406 245.155 381.766C243.778 380.993 242.323 380.394 241.596 378.868C240.726 378.479 239.88 378.153 239.01 377.763C237.928 377.383 236.911 377.555 236 378.191C234.54 379.469 232.084 380.406 233.843 383.125C236.24 388.27 240.038 391.798 245.399 393.936C255.622 398.041 266.341 399.288 277.093 400.811C277.867 400.949 278.679 400.999 279.429 401.074C283.043 401.282 284.345 402.804 285.046 406.721C286.503 414.316 287.479 422.167 290.455 429.398C291.599 432.208 291.907 434.904 291.159 437.858C290.48 440.425 290.511 443.154 291.584 445.775C292.478 447.742 293.55 448.848 295.724 448.307Z" fill="#8071A4"/>
<path d="M288.204 378.991C289.838 379.304 291.41 379.642 293.045 379.956C288.992 373.496 286.373 366.633 286.872 358.868C287.312 351.704 282.281 349.296 276.834 347.119C277.124 350.903 277.264 354.673 274.957 358.078C273.791 359.749 273.763 361.563 275.35 363.266C276.874 364.992 277.251 367.301 277.981 369.403C278.735 371.568 280.175 372.317 282.289 372.375C287.18 372.528 287.18 372.528 287.816 377.407C287.858 377.896 288.075 378.463 288.204 378.991Z" fill="#CECDCE"/>
<path d="M235.55 383.405C233.914 380.758 236.246 379.937 237.632 378.643C237.145 377.367 236.817 375.96 236.208 374.73C235.6 373.501 234.786 372.28 233.859 371.311C232.243 369.63 227.944 368.764 227.091 369.995C225.665 372.279 226.561 374.444 228.027 376.46C229.385 378.378 231.676 379.454 232.398 381.893C233.176 382.292 233.978 382.752 234.818 383.128C235.009 383.264 235.261 383.376 235.55 383.405Z" fill="#CECDCE"/>
</svg>
