<svg width="203" height="274" viewBox="0 0 203 274" fill="none" xmlns="http://www.w3.org/2000/svg">
<path d="M72.594 67.6288C77.4113 65.2272 82.1248 62.9162 86.7817 60.5558C91.4544 58.1485 96.0842 55.7238 100.716 53.2203C101.466 52.8075 102.108 52.1378 102.72 51.4828C103.826 50.2314 103.882 48.7654 102.775 47.4122C102.06 46.5635 101.182 45.8348 100.347 45.1235C97.0084 42.2785 94.8194 38.7047 94.2819 34.0743C93.442 27.301 97.6456 20.9291 103.947 19.3429C110.015 17.795 116.44 21.6282 118.494 27.9909C119.428 30.8687 119.796 33.756 119.48 36.7904C119.036 40.7828 121.043 42.5815 124.584 41.2827C127.085 40.3854 129.508 39.2167 131.901 38.0626C138.523 34.7998 145.119 31.4729 151.699 28.1926C152.228 27.929 152.756 27.6654 153.344 27.3725C153.568 27.6496 153.78 27.8157 153.889 28.0725C157.976 37.8925 162.019 47.6949 166.076 57.5295C166.185 57.7863 166.307 58.0752 166.387 58.3466C166.981 60.4219 166.739 60.7756 164.761 60.5566C159.952 60.0381 155.561 61.1776 151.68 64.2787C146.851 68.1637 144.705 75.5312 146.473 81.725C148.428 88.5258 153.728 93.2309 159.977 93.537C166.557 93.8717 171.36 90.4277 175.092 84.874C176.255 83.167 176.807 83.1253 177.665 85.0688C182.107 95.1393 186.431 105.268 190.784 115.383C190.825 115.479 190.777 115.619 190.769 115.935C190.328 116.154 189.799 116.418 189.271 116.682C181.692 120.46 174.114 124.238 166.549 128.048C164.845 128.897 163.153 129.858 161.684 131.095C159.163 133.207 159.258 135.531 161.941 137.498C164.311 139.232 166.264 141.408 167.623 144.113C170.134 149.12 169.98 154.134 167.027 158.755C164.21 163.191 160.07 165.177 155.11 164.385C149.89 163.566 146.333 160.207 144.821 154.703C144.138 152.166 143.998 149.398 144.086 146.749C144.186 142.617 142.284 140.728 138.763 142.328C132.603 145.087 126.539 148.072 120.46 151.024C117.039 152.691 113.616 154.436 110.238 156.121C108.027 153.335 96.8563 125.354 97.0532 122.962C98.6311 122.992 100.234 123.165 101.816 123.037C108.595 122.496 113.823 119.384 116.613 112.278C118.828 106.587 117.468 99.2563 113.006 94.5996C108.628 90.0567 103.378 88.7476 97.611 90.9228C93.8936 92.3095 90.8983 94.8136 88.6567 98.3414C88.2774 98.9581 87.7851 99.4757 87.1529 100.335C86.3471 99.104 85.5189 98.1563 85.0432 97.0328C80.9616 87.5603 76.8957 78.0412 72.8434 68.5541C72.6917 68.2798 72.6983 68.0433 72.594 67.6288Z" fill="white"/>
<path d="M60.801 159.699C65.4353 159.6 68.8982 162.194 71.3692 166.184C76.0334 173.813 79.7785 174.545 85.2593 168.86C89.8081 164.14 92.2792 158.353 93.3993 151.666C95.0324 153.149 97.0118 153.791 98.9698 154.5C103.181 155.972 105.973 158.957 107.99 162.901C109.431 174.764 105.075 184.991 102.262 195.516C97.5845 212.86 90.1456 228.834 81.1292 243.886C77.8929 241.315 73.9726 240.888 70.437 239.256C72.3395 233.295 76.6147 228.455 77.5595 222.072C79.2482 210.67 83.8954 200.265 84.0151 188.402C84.0408 183.677 83.049 178.963 83.438 174.322C82.4804 173.901 82.335 174.601 82.0486 175.009C71.8779 188.789 59.1121 199.211 42.4988 204.578C41.4428 204.953 40.4125 205.493 39.4035 205.965C38.0355 202.919 35.8893 200.599 32.9437 199.074C38.0398 194.595 43.1358 190.116 47.146 184.395C52.3617 176.608 57.5775 168.821 60.801 159.699Z" fill="#418E89"/>
<path d="M106.8 168.505C104.787 164.567 102.002 161.587 97.8011 160.117C95.916 159.44 93.873 158.768 92.2438 157.288C92.8451 153.206 94.6833 150.126 98.1422 148.066C103.763 144.593 105.683 138.575 106.646 132.136C107.214 128.649 105.371 125.397 103.175 122.523C100.748 119.395 98.2315 116.303 96.3635 112.887C93.3268 107.279 93.5784 103.806 97.7495 99.9994C99.9673 97.9258 102.462 96.2031 104.842 94.3534C106.552 94.1154 108.194 93.8472 109.905 93.6092C116.272 96.3378 122.806 98.3008 129.11 101.23C131.02 102.072 133.388 101.97 135.439 101.883C142.382 101.586 149.718 102.987 155.992 99.4204C157.399 98.6676 158.901 98.1087 159.57 96.4971C160.466 96.129 161.34 95.8277 162.236 95.4596C163.357 95.1148 164.445 95.3651 165.452 96.1135C167.081 97.5938 169.742 98.7661 168.057 101.608C165.857 107.045 162.065 110.637 156.529 112.622C145.974 116.437 134.706 117.117 123.42 118.095C122.61 118.195 121.753 118.199 120.964 118.233C117.151 118.231 115.871 119.803 115.385 124.012C114.34 132.169 113.82 140.634 111.142 148.301C110.114 151.28 109.965 154.188 110.95 157.444C111.837 160.275 111.982 163.237 111.018 166.016C110.199 168.095 109.137 169.229 106.8 168.505Z" fill="#8071A4"/>
<path d="M113.185 93.5328C111.422 93.7748 109.729 94.0473 107.966 94.2893C111.954 87.42 114.351 80.0149 113.284 71.4159C112.322 63.4825 117.651 61.1466 123.45 59.0925C123.388 63.2496 123.489 67.3999 126.236 71.3043C127.621 73.2226 127.775 75.2264 126.157 77.0034C124.609 78.811 124.354 81.3346 123.698 83.6071C123.021 85.9475 121.5 86.6818 119.196 86.6116C113.867 86.4681 113.867 86.4681 113.502 91.8107C113.488 92.3473 113.29 92.9588 113.185 93.5328Z" fill="#CECDCE"/>
<path d="M71.3539 236.374C74.773 237.873 78.5208 238.344 81.6319 240.806C83.9829 243.301 86.7364 245.241 89.4899 247.18C91.5818 248.609 92.178 250.262 91.2867 252.581C90.3749 254.964 88.8831 254.237 86.9393 253.751C81.1491 252.165 75.63 249.965 71.1295 245.283C67.7346 241.598 67.7547 239.19 71.3539 236.374Z" fill="#3D3C3F"/>
<path d="M36.3122 197.929C39.2726 199.459 41.451 201.719 42.8043 204.842C42.4218 209.961 43.5904 215.378 41.8845 220.222C41.4333 221.633 41.1497 223.501 39.4009 223.575C37.5834 223.62 36.3718 222.015 35.2762 220.537C31.9163 215.843 31.0186 202.959 33.5967 198.575C34.3916 197.315 35.2595 197.543 36.3122 197.929Z" fill="#3D3C3F"/>
<path d="M168.417 98.1572C170.053 95.2638 167.407 94.1805 165.78 92.622C166.233 91.2074 166.501 89.6347 167.092 88.2807C167.684 86.9267 168.504 85.5961 169.467 84.5585C171.146 82.7596 175.86 82.0606 176.891 83.5116C178.631 86.1948 177.785 88.5895 176.295 90.7791C174.918 92.8641 172.449 93.9326 171.814 96.6505C170.977 97.0516 170.118 97.52 169.211 97.8908C169.009 98.0324 168.737 98.1436 168.417 98.1572Z" fill="#CECDCE"/>
<path d="M65.3601 167.407C62.522 167.998 59.1428 167.22 57.1765 169.931C56.3338 171.094 54.9503 169.846 54.1685 168.734C50.4395 163.63 45.5263 161.83 40.0411 161.617C33.6834 161.363 31.5882 159.037 32.0714 152.802C32.2627 150.366 32.8951 148.065 33.1565 145.662C33.7496 140.89 31.665 136.712 27.8749 134.922C21.9793 132.138 18.2085 132.883 15.7203 137.28C15.1885 138.217 15.3885 140.169 13.5836 139.762C12.1497 139.457 11.5083 137.891 10.7666 136.649C8.41123 132.565 7.37958 128.364 7.40089 124.139C7.39246 118.712 9.17886 113.984 11.2961 109.486C14.5472 102.626 21.2866 100.609 28.8678 100.548C35.2356 100.51 41.6436 100.341 48.2617 101.832C53.516 103.05 57.7686 100.749 61.4395 98.2484C70.3161 92.188 77.3581 84.5184 79.698 73.0683C81.1943 65.9001 84.415 59.9176 89.5909 55.1556C96.7027 48.5591 111.243 48.3679 119.785 55.0761C121.921 56.7531 123.454 58.8146 124.497 61.164C125.489 63.4154 125.498 65.2029 123.673 66.421C118.017 68.0588 112.791 70.1231 113.932 77.868C115.193 86.264 113.075 93.3615 109.233 99.7932C106.856 101.494 104.338 103.128 102.151 104.993C97.9987 108.529 97.8272 111.94 101.055 117.624C103.089 121.185 105.746 124.297 108.222 127.472C110.597 130.451 112.482 133.718 111.989 137.126C111.095 143.39 109.358 149.256 103.722 152.389C100.322 154.275 98.4556 157.182 97.943 161.175C96.9684 167.698 94.6001 173.266 90.0962 177.676C84.7397 183.022 80.829 182.141 75.9276 174.329C73.6424 170.278 70.0632 167.548 65.3601 167.407Z" fill="#423977"/>
</svg>
