<svg width="14" height="14" viewBox="0 0 14 14" fill="none" xmlns="http://www.w3.org/2000/svg">
<g clip-path="url(#clip0)">
<path d="M8.70963 2.36768C9.64144 3.30455 10.5824 4.25296 11.5165 5.19214C9.12275 7.59894 6.72439 10.0127 4.33062 12.4195C3.39652 11.4803 2.45094 10.5342 1.51685 9.5973C3.91291 7.18589 6.31357 4.77447 8.70963 2.36768Z" fill="black"/>
<path d="M12.2925 4.43985C11.3424 3.48452 10.3991 2.53842 9.44434 1.57847C9.61876 1.40541 9.79778 1.22772 9.9768 1.05004C10.2201 0.810053 10.4565 0.563144 10.7043 0.33008C11.1679 -0.10605 11.9161 -0.115281 12.382 0.33008C12.8411 0.770825 13.2978 1.21618 13.727 1.68462C14.0988 2.09075 14.0827 2.61918 13.6994 3.02532C13.2473 3.50529 12.7722 3.96219 12.3063 4.43062C12.304 4.43524 12.2971 4.43755 12.2925 4.43985Z" fill="black"/>
<path d="M0.711442 10.3911C1.65472 11.3395 2.59341 12.281 3.53669 13.2294C3.38292 13.2686 3.22226 13.3079 3.06161 13.3471C2.19636 13.5571 1.33111 13.7694 0.468163 13.9794C0.135376 14.0601 -0.0574107 13.8755 0.0160319 13.5386C0.247835 12.491 0.479638 11.4411 0.711442 10.3911Z" fill="black"/>
</g>
<defs>
<clipPath id="clip0">
<rect width="14" height="14" fill="white"/>
</clipPath>
</defs>
</svg>
