<svg width="122" height="122" viewBox="0 0 122 122" fill="none" xmlns="http://www.w3.org/2000/svg">
<g clip-path="url(#clip0)">
<path d="M66.0001 122C61.1001 119.2 58.7001 114.8 57.1001 109.5C55.0001 102.5 52.5001 95.6 50.1001 88.7C49.1001 85.7 48.9001 82.9 52.5001 81.7C56.1001 80.5 57.6001 83 58.6001 85.9C61.2001 93.6 63.7001 101.4 66.5001 109C67.0001 110.5 68.6001 111.6 69.7001 112.9C70.8001 111.6 72.4001 110.5 73.0001 109C85.9001 77.8 98.8001 46.6 111.6 15.3C112.2 13.8 112 11.9 112.1 10.2C110.3 10.3 108.2 9.9 106.6 10.6C75.4001 23.4 44.3001 36.2 13.2001 49C11.6001 49.7 10.4001 51.4 9.00008 52.6C10.4001 53.6 11.6001 55.1 13.2001 55.6C21.5001 58.6 29.9001 61.2 38.2001 64.3C41.1001 65.4 43.1001 65 45.4001 63C57.2001 52.7 69.2001 42.6 81.1001 32.5C83.4001 30.6 85.8001 28.7 88.5001 31.2C91.1001 33.6 90.6001 36.3 88.0001 38.5C74.1001 50.2 60.3001 61.9 46.2001 73.5C45.0001 74.5 42.4001 74.8 40.8001 74.3C29.9001 70.8 19.1001 67 8.20008 63.2C3.10008 61.4 0.30008 57.8 7.97827e-05 52.4C-0.29992 47.2 2.50008 43.4 8.10008 41.1C39.2001 28.4 70.3001 15.7 101.4 2.9C103.3 2.1 105.1 1 107 0C109 0 111 0 113 0C116 3 119 6 122 9C122 10.7 122 12.3 122 14C121.4 15.4 120.7 16.7 120.1 18.1C107.3 49.2 94.5001 80.2 81.9001 111.3C80.0001 115.9 77.6001 119.8 73.0001 122C70.7001 122 68.3001 122 66.0001 122Z" fill="white"/>
</g>
<defs>
<clipPath id="clip0">
<rect width="122" height="122" fill="white"/>
</clipPath>
</defs>
</svg>
