<svg width="131" height="81" viewBox="0 0 131 81" fill="none" xmlns="http://www.w3.org/2000/svg">
<path d="M26.5931 75.2556C34.9396 75.5814 43.2763 75.2359 51.6179 75.0966L102.364 73.8193C108.64 74.7391 114.951 74.4304 121.248 74.2912C123.167 74.2487 124.689 73.0072 125.79 71.2617C127.804 68.071 128.004 64.4151 128.917 60.928C130.576 54.6023 126.254 48.073 122.243 45.6201C120.861 44.7735 119.382 44.0628 118.066 43.1202C114.648 40.6686 112.225 37.6909 113.02 33.1104C113.649 29.4733 114.143 25.8179 114.947 22.2079C116.713 14.2827 114.268 8.55931 107.594 4.44713C106.074 3.50937 104.436 3.10344 102.728 3.45251C99.6975 4.06778 96.5055 4.06188 93.7398 5.75278C92.8042 6.32428 91.685 6.37131 90.5829 6.37413C84.9782 6.38675 79.9161 4.09117 74.6777 2.61762C72.0565 1.88082 69.5174 1.11296 66.7551 1.03702C62.9402 0.932337 59.1834 1.54018 55.4014 1.67457C45.6074 2.02136 38.46 7.19306 32.1665 13.8621C28.6337 17.603 27.8701 22.5398 26.9442 27.4054C25.4484 35.2782 21.8504 41.6017 13.5411 44.3493C5.41245 47.0351 0.823793 52.5019 0.236902 61.2382C-0.0465002 65.4872 1.32122 68.8323 4.148 71.8042L4.1649 71.8221C5.33164 73.0558 6.50131 74.2925 8.30554 74.5141C10.1185 74.7368 11.9439 74.9435 13.7677 75.0006C18.0434 75.1328 22.322 75.0911 26.5931 75.2556Z" fill="#EDE7F2"/>
<path d="M119.244 73.2096C119.106 73.7403 118.999 74.2433 118.86 74.7739C118.188 77.8194 117.07 78.1906 113.722 77.683C108.51 76.9232 105.483 73.4655 102.457 69.9479C100.976 68.2213 99.1719 66.7121 98.0793 64.5926C96.9962 68.9903 96.1037 73.3714 93.5767 77.1562C93.071 77.0903 92.7587 76.888 92.5165 76.3904C92.0934 75.4895 91.5424 74.6397 91.0243 73.7321C90.8692 69.4269 91.3139 65.2243 92.3276 61.092C92.7113 59.5576 93.1893 58.06 93.7615 56.5991C94.3694 54.9605 95.3607 54.5804 97.0873 55.3033C98.1859 55.7716 99.2165 56.4452 100.281 57.0311C101.624 57.907 102.966 58.783 104.278 59.6567C106.048 61.2236 107.721 62.9037 109.916 63.9601C112.658 66.0162 115.108 68.382 117.72 70.5791C118.684 71.3981 119.078 72.1768 119.244 73.2096Z" fill="#418E89"/>
<path d="M103.634 59.5597C102.279 58.6714 100.925 57.783 99.6023 56.8969C99.3649 54.6872 98.5495 52.5886 98.3439 50.3812C98.2946 49.7381 98.2134 49.0927 98.2605 48.4261C99.4012 48.8729 100.536 49.5629 101.83 48.9241C101.924 48.9918 102.018 49.0594 102.112 49.1574C101.962 50.1213 102.776 50.8798 102.98 51.7471C103.097 52.2427 103.207 53.0119 103.976 52.9449C104.585 52.8665 104.885 52.3397 104.804 51.6943C104.997 51.6472 105.284 51.6676 105.383 51.5224C107.037 49.0821 109.786 47.6943 111.691 45.4546C114.101 44.9259 116.599 44.708 118.768 43.5226C119.585 45.5604 120.691 47.4971 121.025 49.7136C121.134 50.5436 121.052 51.3296 121.13 52.127C121.206 52.9852 121.301 52.8174 121.314 53.5026C121.472 54.3884 121.565 56.5436 121.219 59.8514C121.131 60.6846 120.938 61.9504 120.896 62.4042C120.735 65.2555 120.287 68.0864 120.35 70.9537C120.388 72.0832 120.11 73.0684 118.731 73.2747C118.563 72.2272 118.165 71.4375 117.224 70.6395C114.589 68.4112 112.118 66.0119 109.353 63.9265C111.327 61.4481 111.376 59.2893 109.508 57.1156C109.331 56.433 110.103 54.8434 108.263 55.5955C107.134 56.0632 106.092 56.8722 105.617 58.087C104.624 58.1989 103.88 58.5723 103.634 59.5597Z" fill="#8071A4"/>
<path d="M119.264 43.6198C117.08 44.848 114.564 45.1194 112.137 45.6868C110.882 45.7261 109.593 45.7631 108.338 45.7703C107.502 45.7751 106.766 45.5619 106.303 44.7245C105.839 43.887 106.492 43.4829 106.858 42.9298C107.459 42.0072 108.027 41.0823 108.085 39.928C108.239 38.8127 108.264 37.7204 108 36.6076C107.239 33.2712 106.604 32.9042 104.161 32.7946C101.521 31.4162 101.192 27.4991 103.453 25.7293C108.531 21.7467 113.653 24.3637 116.974 28.3007C118.885 30.5927 120.015 33.2474 121.176 35.9687C122.702 39.5848 121.594 41.6297 119.264 43.6198Z" fill="#423977"/>
<path d="M90.9856 73.4044C91.4714 74.2726 92.021 75.1155 92.4738 76.0409C92.7153 76.5345 93.0268 76.7351 93.531 76.8005C93.6025 77.8181 93.0907 78.0799 92.0836 77.8897C90.9502 77.6907 89.7833 77.5787 88.6506 77.3499C86.9513 77.0216 85.4687 75.5173 85.1255 73.9443C84.8696 72.7052 85.9631 71.8888 87.5691 72.1509C88.7971 72.3566 89.9236 72.853 90.9856 73.4044Z" fill="#3D3C3F"/>
<path d="M102.589 49.1767C102.494 49.1091 102.4 49.0414 102.306 48.9433C101.647 47.0071 100.467 45.43 98.833 44.1557C98.2165 43.1367 97.568 42.1154 96.9835 41.0987C96.7071 40.5915 96.0823 39.9375 96.8591 39.5359C97.5713 39.16 98.035 39.8634 98.4085 40.3166C99.3103 41.4474 100.147 42.6344 101.016 43.7933C101.438 44.9507 101.503 46.2961 102.994 46.8289C103.173 47.3902 103.321 47.9187 103.5 48.4799C103.394 48.9294 103.131 49.2458 102.589 49.1767Z" fill="white"/>
<path d="M104.195 32.8242C106.633 32.9673 107.268 33.3185 108.032 36.463C108.297 37.5221 108.273 38.5607 108.121 39.6206C106.845 38.9146 105.716 38.5536 105.317 37.3306C105.206 37.1382 104.911 37.1451 104.84 36.9116C104.757 36.64 105.02 36.1821 105.005 35.7522C104.957 35.0451 104.371 33.571 104.195 32.8242Z" fill="#CECDCE"/>
<path d="M98.784 44.2084C100.414 45.5104 101.591 47.0842 102.25 48.986C100.991 49.626 99.8575 48.9371 98.6867 48.4888C98.1774 47.0234 97.923 45.5762 98.784 44.2084Z" fill="#CECDCE"/>
<path d="M102.374 49.1901C102.919 49.229 103.183 48.9417 103.29 48.4903C104.396 49.3342 104.169 50.8177 105.08 51.7396C105.162 52.3881 104.86 52.9481 104.248 52.9963C103.474 53.0942 103.364 52.2906 103.247 51.7925C103.041 50.921 102.222 50.1893 102.374 49.1901Z" fill="#CECDCE"/>
<path d="M102.933 46.7818C101.406 46.2453 101.341 44.8966 100.95 43.7385C102.025 43.0209 102.392 43.8107 102.791 44.6028C103.191 45.3339 103.239 46.0399 102.933 46.7818Z" fill="#CECDCE"/>
<path d="M109.555 57.1766C109.104 57.4168 108.809 57.8193 108.514 58.1915C107.468 59.448 107.054 59.4488 105.684 58.1717C106.157 56.9652 107.193 56.1617 108.316 55.6971C110.147 54.9199 109.348 56.4964 109.555 57.1766Z" fill="#CECDCE"/>
<path d="M65.4361 44.5884C54.8693 49.8534 33.2319 57.3561 31.2168 45.2474C28.698 30.1115 42.7144 22.6173 50.145 25.2297C57.5756 27.8421 55.5696 45.4069 21.4326 57.1603" stroke="#423977" stroke-width="1.09789" stroke-dasharray="3.66 3.66"/>
<path d="M72.2123 33.168C71.0868 33.0481 69.9629 32.9259 68.8374 32.81C68.4989 32.7749 68.4979 32.7832 68.5541 33.1261C68.5776 33.2718 68.4499 33.3154 68.3724 33.3826C67.2086 34.3945 66.042 35.403 64.8753 36.4115C64.0928 37.088 63.3117 37.7662 62.5219 38.4333C62.3029 38.6184 62.1282 38.8062 62.3025 39.0946C62.4803 39.3893 62.581 39.7612 63.0831 39.6944C64.5126 39.5044 65.9471 39.3528 67.3798 39.1803C68.2881 39.0707 69.1958 38.9501 70.1035 38.8335C70.2637 38.7984 70.4222 38.7516 70.5844 38.7292C72.5113 38.4655 74.44 38.2095 76.3674 37.9436C77.5178 37.7845 78.6663 37.6086 79.8172 37.4473C81.3879 37.2277 82.961 37.0178 84.5317 36.7982C85.9236 36.604 87.3163 36.4085 88.706 36.1965C89.0157 36.1492 89.3659 36.1653 89.5567 35.8022C89.6547 35.6165 89.841 35.7295 89.991 35.779C90.3272 35.8218 90.2854 35.5354 90.3479 35.354C90.414 35.1627 90.2821 35.0652 90.1354 34.9651C88.1294 33.5992 86.1268 32.2304 84.1298 30.8553C82.8459 29.9712 81.5751 29.0698 80.2904 28.187C79.3626 27.549 78.4178 26.9375 77.4907 26.2984C77.3048 26.1701 77.0534 26.0868 77.0356 25.7733C77.0269 25.613 76.8533 25.5792 76.6855 25.5866C76.376 25.6004 76.1211 25.72 75.8748 25.9014C74.422 26.9709 72.9646 28.0334 71.5074 29.0969C70.9769 29.484 70.9744 29.512 71.3657 30.0635C71.4499 30.1825 71.5097 30.3185 71.5808 30.4467C71.7005 30.2883 71.8396 30.3008 72.0173 30.356C73.9451 30.9498 75.8762 31.5357 77.807 32.1206C80.6023 32.9667 83.3967 33.809 86.1901 34.6556C86.5075 34.7516 86.8187 34.8683 87.1326 34.9753C87.0512 35.0729 86.9879 35.093 86.9293 35.0856C85.2225 34.8574 83.5173 34.6187 81.8103 34.3977C78.6107 33.9828 75.4114 33.577 72.2123 33.168ZM87.555 35.1286C87.5594 35.1174 87.5594 35.1001 87.5674 35.0952C87.578 35.0886 87.5938 35.0909 87.6077 35.0896C87.6025 35.1061 87.5984 35.1233 87.5932 35.1398C87.5803 35.1367 87.5672 35.1328 87.555 35.1286ZM87.3523 35.0662L87.3283 35.0891L87.3192 35.0639L87.3523 35.0662Z" fill="#423977"/>
<path d="M89.9885 35.7798C89.8386 35.7302 89.652 35.6163 89.5543 35.803C89.3634 36.1661 89.0133 36.15 88.7036 36.1973C87.3138 36.4093 85.9212 36.6048 84.5293 36.799C82.9585 37.0186 81.3855 37.2285 79.8148 37.4481C78.6648 37.6091 77.5163 37.785 76.365 37.9444C74.4376 38.2102 72.5098 38.466 70.582 38.73C70.4197 38.7524 70.2613 38.7992 70.101 38.8343C70.311 39.7121 70.518 40.5906 70.7306 41.4668C70.8288 41.8707 71.0145 42.1006 71.4972 41.9481C73.3249 41.3741 75.162 40.8272 76.9924 40.2606C78.4614 39.8054 79.9252 39.3332 81.3924 38.8703C83.4677 38.2149 85.5431 37.5596 87.6194 36.9081C88.1033 36.7563 88.5862 36.5876 89.0813 36.483C89.5154 36.3908 89.8133 36.1788 89.9885 35.7798Z" fill="#9D98B9"/>
<path d="M72.2118 33.1679C75.4111 33.5779 78.6103 33.9827 81.8088 34.3979C83.5161 34.6199 85.2211 34.8576 86.9279 35.0858C86.9867 35.0941 87.0497 35.073 87.1311 34.9755C86.8172 34.8685 86.5061 34.7517 86.1887 34.6557C83.3953 33.8092 80.6009 32.9669 77.8075 32.1203C75.8766 31.5354 73.9466 30.9493 72.0178 30.3557C71.8401 30.3005 71.7 30.2882 71.5813 30.4464C71.5989 30.5163 71.6166 30.5862 71.6342 30.6561C71.7107 30.6998 71.7205 30.7584 71.6737 30.8304C71.7618 31.5332 72.0727 32.1697 72.2651 32.8416C72.3008 32.9661 72.3953 33.0857 72.2118 33.1679Z" fill="#9D98B9"/>
</svg>
