<svg width="15" height="15" viewBox="0 0 15 15" fill="none" xmlns="http://www.w3.org/2000/svg">
<g clip-path="url(#clip0)">
<path d="M8.78349 11.2009C8.48779 11.5034 8.25258 11.7455 8.01064 11.9875C7.31172 12.68 6.63968 13.3995 5.90715 14.0516C4.87892 14.966 3.6558 15.2215 2.35204 14.8114C1.08188 14.408 0.295589 13.5003 0.0536538 12.1825C-0.1614 11.0126 0.120858 9.92343 0.947471 9.05611C2.03618 7.9064 3.15849 6.7903 4.30097 5.69438C5.59129 4.45054 7.71494 4.39676 9.06575 5.55991C9.26064 5.728 9.43537 5.99021 9.50258 6.23898C9.61011 6.62894 9.43537 6.96511 9.09263 7.18026C8.76333 7.38197 8.41387 7.36852 8.07785 7.17354C7.98376 7.11975 7.90312 7.03907 7.80903 6.97184C7.13699 6.48103 6.22301 6.48103 5.62489 7.05924C4.5093 8.13499 3.39371 9.21747 2.3386 10.3537C1.47166 11.2883 1.85473 12.7473 3.01064 13.0498C3.57516 13.1978 4.12623 13.0969 4.5765 12.6935C5.14774 12.1758 5.69882 11.6379 6.24317 11.1C6.4179 10.9252 6.53887 10.8714 6.80097 10.9925C7.4058 11.2681 8.05097 11.3354 8.78349 11.2009Z" fill="#423977"/>
<path d="M8.49449 4.18169C7.76196 3.77156 7.03616 3.67071 6.22971 3.78501C6.31707 3.68416 6.37083 3.6102 6.43132 3.54969C7.28481 2.70254 8.11815 1.83521 8.99852 1.00823C10.8802 -0.76676 13.9313 -0.101139 14.7714 2.27896C15.2351 3.59675 15.0066 4.86076 14.059 5.89617C12.9703 7.08622 11.8144 8.21576 10.645 9.33185C9.35471 10.5622 7.21761 10.5959 5.90713 9.44615C5.70551 9.26462 5.53078 8.99568 5.46358 8.73346C5.36277 8.3435 5.55094 7.99389 5.90713 7.80563C6.23643 7.63082 6.59261 7.63754 6.92191 7.85269C8.09126 8.62589 8.71627 8.57882 9.71761 7.60393C10.6383 6.70971 11.5321 5.79532 12.4394 4.88766C12.7754 4.55148 13.0308 4.16152 13.0778 3.67071C13.145 2.97147 12.9031 2.41343 12.2714 2.07726C11.6195 1.73436 10.9878 1.84866 10.43 2.27896C10.0469 2.57479 9.70417 2.93786 9.35471 3.28075C9.05229 3.57658 8.77675 3.88586 8.49449 4.18169Z" fill="#423977"/>
</g>
<defs>
<clipPath id="clip0">
<rect width="15" height="15" fill="white"/>
</clipPath>
</defs>
</svg>
