<svg width="143" height="86" viewBox="0 0 143 86" fill="none" xmlns="http://www.w3.org/2000/svg">
<path d="M27.0101 76.2424C35.3566 76.5682 43.6933 76.2227 52.0349 76.0834L102.781 74.8061C109.057 75.7259 115.368 75.4172 121.665 75.278C123.584 75.2355 125.106 73.994 126.207 72.2485C128.221 69.0578 128.421 65.4019 129.334 61.9148C130.993 55.5891 126.671 49.0598 122.66 46.607C121.278 45.7603 119.799 45.0496 118.483 44.107C115.065 41.6554 112.642 38.6777 113.437 34.0972C114.066 30.4601 114.56 26.8047 115.364 23.1947C117.13 15.2695 114.685 9.54613 108.011 5.43395C106.491 4.49619 104.852 4.09026 103.145 4.43933C100.114 5.05459 96.9225 5.04869 94.1568 6.73959C93.2212 7.3111 92.102 7.35812 90.9999 7.36094C85.3952 7.37357 80.3331 5.07799 75.0947 3.60444C72.4735 2.86763 69.9344 2.09978 67.1721 2.02384C63.3572 1.91915 59.6003 2.527 55.8184 2.66138C46.0244 3.00817 38.877 8.17988 32.5835 14.8489C29.0507 18.5898 28.287 23.5266 27.3612 28.3922C25.8654 36.265 22.2674 42.5885 13.9581 45.3361C5.82944 48.0219 1.24079 53.4887 0.653894 62.225C0.370492 66.474 1.73821 69.8191 4.56499 72.7911L4.58189 72.8089C5.74863 74.0426 6.9183 75.2793 8.72253 75.5009C10.5355 75.7236 12.3609 75.9303 14.1846 75.9874C18.4604 76.1196 22.739 76.078 27.0101 76.2424Z" fill="#EDE7F2"/>
<path d="M43.8135 29.5428C45.1551 29.1526 46.4663 28.7802 47.7646 28.3937C49.0687 27.9966 50.3622 27.5937 51.6591 27.1719C51.8694 27.1018 52.0605 26.9658 52.2435 26.8322C52.5767 26.5745 52.6434 26.2245 52.4034 25.8566C52.2473 25.625 52.0446 25.416 51.8524 25.2128C51.0837 24.4 50.6408 23.4567 50.6662 22.3237C50.6893 20.6643 52.0128 19.2967 53.712 19.1599C55.3492 19.0233 56.8871 20.193 57.195 21.8009C57.3355 22.5283 57.3284 23.2361 57.1376 23.9527C56.8791 24.8945 57.3379 25.4043 58.3074 25.2296C58.9916 25.111 59.6647 24.9242 60.3298 24.7397C62.1727 24.2127 64.0109 23.6692 65.8434 23.1363C65.9906 23.0935 66.1379 23.0507 66.3015 23.0031C66.35 23.0783 66.3994 23.1265 66.4186 23.1924C67.1328 25.7094 67.8365 28.2207 68.5426 30.7401C68.5617 30.806 68.5833 30.8801 68.5943 30.9484C68.675 31.4699 68.5993 31.5455 68.0915 31.4162C66.8566 31.1053 65.6712 31.2089 64.5487 31.8033C63.1509 32.5493 62.3283 34.2358 62.5679 35.792C62.8343 37.5013 64.0478 38.8369 65.6656 39.1525C67.3691 39.488 68.7441 38.8469 69.9154 37.6576C70.2795 37.2926 70.4248 37.304 70.5791 37.8041C71.3769 40.3951 72.1421 42.9957 72.9154 45.5938C72.9226 45.6185 72.9052 45.6504 72.8917 45.7258C72.7689 45.7615 72.6217 45.8043 72.4744 45.8471C70.3639 46.4609 68.2534 47.0747 66.1452 47.6967C65.6707 47.8346 65.1953 47.9997 64.7683 48.24C64.0357 48.6496 63.9773 49.2115 64.6063 49.788C65.1622 50.2963 65.5935 50.8946 65.851 51.5969C66.3266 52.8969 66.1073 54.0953 65.1724 55.0908C64.2795 56.0473 63.1294 56.3639 61.8647 55.9812C60.5332 55.5823 59.7262 54.6377 59.5287 53.2568C59.4414 52.6211 59.5038 51.9508 59.6214 51.318C59.7953 50.3294 59.3668 49.8019 58.392 50.0496C56.6876 50.4738 55.0001 50.9556 53.3101 51.4292C52.3588 51.6969 51.4041 51.9835 50.4633 52.2571C49.9866 51.5023 48.0747 44.3485 48.2115 43.7816C48.6218 43.8499 49.0334 43.9536 49.4505 43.9842C51.2369 44.1168 52.7109 43.572 53.6922 41.9734C54.473 40.6922 54.3804 38.8788 53.3838 37.5873C52.4049 36.3264 51.0832 35.8085 49.5021 36.1075C48.4835 36.2965 47.6133 36.7819 46.9028 37.5423C46.7819 37.6758 46.6351 37.781 46.4396 37.9629C46.2735 37.636 46.0915 37.3763 46.0077 37.088C45.2823 34.6545 44.5627 32.2105 43.8454 29.7747C43.8157 29.7029 43.8259 29.6464 43.8135 29.5428Z" fill="white"/>
<path d="M40.4521 58.9481C41.6115 58.8495 42.4341 59.434 42.9861 60.3789C44.0265 62.1866 44.9501 62.3072 46.4124 60.817C47.6261 59.5797 48.3383 58.1123 48.7276 56.4445C49.1113 56.7842 49.5953 56.9109 50.0729 57.0545C51.1008 57.3502 51.7494 58.0421 52.1889 58.9828C52.3546 61.8866 51.0988 64.4798 50.2236 67.1217C48.7712 71.4756 46.6511 75.5361 44.1521 79.394C43.3857 78.8116 42.4133 78.769 41.5567 78.4228C42.1296 76.9216 43.2769 75.659 43.6175 74.0691C44.2261 71.2289 45.5575 68.5873 45.7816 65.6584C45.8654 64.4923 45.6948 63.345 45.868 62.1937C45.6357 62.1051 45.5879 62.2801 45.5096 62.3855C42.7431 65.948 39.3832 68.7237 35.1448 70.3139C34.8748 70.4235 34.6086 70.5731 34.3488 70.7058C34.0569 69.976 33.5587 69.4381 32.8478 69.1088C34.1943 67.9222 35.5408 66.7356 36.6363 65.2599C38.0668 63.2552 39.4974 61.2504 40.4521 58.9481Z" fill="#418E89"/>
<path d="M54.1784 40.4179C53.7462 40.5042 53.3306 40.5968 52.8984 40.6831C53.978 38.9502 54.6797 37.1116 54.5589 35.0366C54.4531 33.1218 55.7853 32.4708 57.2272 31.881C57.1452 32.8932 57.1027 33.9011 57.7072 34.8081C58.0127 35.2532 58.0177 35.7382 57.596 36.1956C57.1909 36.6594 57.0882 37.2772 56.8923 37.8402C56.6901 38.42 56.3087 38.6222 55.7502 38.641C54.458 38.6889 54.458 38.6889 54.2831 39.9941C54.2712 40.1249 54.2133 40.2767 54.1784 40.4179Z" fill="#CECDCE"/>
<path d="M41.5464 78.3992C42.4094 78.7285 43.3754 78.788 44.1418 79.3704C44.7101 79.9737 45.3926 80.4274 46.075 80.8811C46.5942 81.2145 46.7208 81.63 46.4495 82.2414C46.1717 82.8697 45.7964 82.7071 45.2995 82.6141C43.8218 82.3014 42.425 81.8263 41.3355 80.6955C40.5163 79.8031 40.5627 79.1832 41.5464 78.3992Z" fill="#3D3C3F"/>
<path d="M32.8146 69.0966C33.5255 69.4258 34.0301 69.9469 34.3156 70.6935C34.137 71.9587 34.339 73.2725 33.8359 74.4912C33.7008 74.8454 33.5998 75.3093 33.1639 75.3555C32.7113 75.3953 32.4364 75.0198 32.1881 74.6739C31.4295 73.5728 31.4166 70.4181 32.129 69.2987C32.3472 68.9762 32.5592 69.0184 32.8146 69.0966Z" fill="#3D3C3F"/>
<path d="M67.9035 41.3312C68.4448 40.6585 67.8411 40.3559 67.512 39.9546C67.6908 39.6203 67.8312 39.2449 68.0414 38.9274C68.2516 38.6099 68.5173 38.3016 68.8045 38.0662C69.3048 37.6583 70.5042 37.5629 70.6911 37.9291C70.995 38.6036 70.6727 39.1683 70.2009 39.6734C69.7618 40.1551 69.1004 40.3746 68.8152 41.0205C68.5891 41.1042 68.3544 41.2039 68.1126 41.2793C68.0557 41.3103 67.9832 41.3329 67.9035 41.3312Z" fill="#CECDCE"/>
<path d="M100.899 49.1232C101.406 47.8213 101.893 46.5481 102.393 45.289C102.903 44.0251 103.419 42.7722 103.954 41.5176C104.042 41.3143 104.194 41.136 104.344 40.9655C104.63 40.6564 104.984 40.6208 105.33 40.8924C105.546 41.0683 105.737 41.2887 105.922 41.4981C106.664 42.3355 107.564 42.86 108.695 42.9347C110.35 43.0582 111.829 41.8606 112.116 40.1802C112.396 38.5615 111.367 36.9263 109.793 36.4776C109.08 36.2734 108.375 36.218 107.644 36.3448C106.683 36.5191 106.216 36.0171 106.475 35.0668C106.654 34.3958 106.9 33.7417 107.142 33.0956C107.83 31.3063 108.533 29.5233 109.226 27.7451C109.282 27.6022 109.337 27.4593 109.399 27.3006C109.328 27.2456 109.285 27.1921 109.221 27.1671C106.777 26.2334 104.337 25.3108 101.89 24.385C101.826 24.3601 101.754 24.3321 101.687 24.3151C101.175 24.1887 101.093 24.2573 101.177 24.7746C101.378 26.0322 101.17 27.2038 100.479 28.2694C99.612 29.5959 97.8595 30.2664 96.3305 29.8903C94.6514 29.474 93.4282 28.1473 93.2566 26.5079C93.0728 24.7815 93.8329 23.4684 95.121 22.4067C95.5166 22.0763 95.5182 21.9306 95.0336 21.7327C92.5232 20.7092 90.0004 19.7174 87.4806 18.7177C87.4566 18.7084 87.4234 18.7228 87.3471 18.7297C87.3007 18.8488 87.245 18.9917 87.1894 19.1345C86.3916 21.1827 85.5939 23.2308 84.7882 25.2758C84.6089 25.7362 84.4025 26.1952 84.1254 26.5993C83.6527 27.2929 83.0878 27.3014 82.5692 26.624C82.1119 26.0253 81.5541 25.5429 80.8772 25.2244C79.6243 24.6358 78.4112 24.7485 77.3371 25.5918C76.3054 26.3968 75.8885 27.5144 76.158 28.808C76.4379 30.1695 77.3075 31.0568 78.6655 31.3755C79.2911 31.5185 79.9642 31.5156 80.6049 31.4543C81.605 31.3684 82.0927 31.8418 81.7598 32.7909C81.1868 34.4512 80.5579 36.0896 79.9369 37.7311C79.5862 38.6551 79.2165 39.5808 78.8609 40.4937C79.5706 41.0352 86.5276 43.5713 87.1044 43.4851C87.0726 43.0704 87.0057 42.6512 87.012 42.2331C87.0376 40.442 87.7105 39.0218 89.3895 38.1855C90.7347 37.5209 92.5328 37.7732 93.7312 38.88C94.9007 39.9664 95.2999 41.3287 94.8625 42.8772C94.5843 43.8751 94.024 44.6991 93.2038 45.3396C93.0602 45.4482 92.9424 45.5852 92.7439 45.7639C93.0549 45.9582 93.2975 46.1624 93.5773 46.2714C95.9372 47.2088 98.3081 48.1414 100.671 49.0709C100.74 49.1069 100.797 49.1018 100.899 49.1232Z" fill="white"/>
<path d="M120.633 59.3465C121.339 59.6307 122.178 59.5942 122.668 60.3731C122.878 60.707 123.222 60.4571 123.415 60.213C124.339 59.0994 125.56 58.8773 126.923 59.0837C128.503 59.3213 129.022 58.8324 128.899 57.2329C128.85 56.608 128.691 55.996 128.625 55.3762C128.475 54.1415 128.991 53.1837 129.932 52.911C131.396 52.4868 132.333 52.8541 132.954 54.0839C133.087 54.3462 133.038 54.8302 133.487 54.8131C133.843 54.8038 134.002 54.4383 134.185 54.1595C134.768 53.2387 135.023 52.2252 135.015 51.156C135.014 49.7841 134.567 48.5038 134.039 47.2661C133.227 45.3774 131.551 44.5474 129.666 44.1725C128.084 43.8605 126.491 43.5139 124.847 43.5768C123.541 43.6356 122.483 42.8521 121.569 42.0455C119.36 40.092 117.605 37.8185 117.017 34.8123C116.641 32.9288 115.838 31.2633 114.549 29.8137C112.777 27.8083 109.163 27.07 107.044 28.3609C106.514 28.6837 106.134 29.1321 105.876 29.6768C105.631 30.199 105.629 30.6505 106.084 31.0451C107.49 31.7276 108.79 32.4975 108.511 34.4017C108.202 36.4648 108.732 38.3599 109.691 40.1685C110.283 40.7113 110.91 41.2439 111.454 41.8192C112.488 42.9104 112.533 43.781 111.734 45.0652C111.23 45.869 110.571 46.5298 109.958 47.2152C109.369 47.8557 108.902 48.5924 109.026 49.4774C109.252 51.1037 109.687 52.6694 111.09 53.729C111.936 54.3672 112.401 55.1909 112.531 56.2248C112.777 57.9204 113.368 59.4406 114.49 60.7696C115.825 62.3753 116.796 62.3381 118.01 60.5953C118.576 59.6795 119.464 59.159 120.633 59.3465Z" fill="#423977"/>
<path d="M120.711 59.3239C119.547 59.1349 118.664 59.654 118.023 60.5542C116.812 62.2773 115.867 62.3255 114.519 60.7237C113.401 59.3937 112.81 57.8733 112.563 56.178C112.145 56.4871 111.644 56.5758 111.149 56.6818C110.083 56.8966 109.366 57.5367 108.839 58.4414C108.416 61.327 109.458 64.0138 110.11 66.7193C111.196 71.179 112.983 75.3979 115.17 79.4442C115.997 78.9228 116.984 78.9563 117.88 78.6776C117.433 77.1344 116.384 75.7843 116.179 74.1707C115.814 71.288 114.7 68.547 114.731 65.6057C114.749 64.4352 115.022 63.3033 114.949 62.1405C115.191 62.0702 115.224 62.2486 115.294 62.3599C117.778 66.1323 120.932 69.1657 125.078 71.0843C125.341 71.2147 125.597 71.3849 125.848 71.5377C126.208 70.832 126.759 70.334 127.507 70.0609C126.25 68.7711 124.992 67.4814 124.014 65.9228C122.744 63.8098 121.474 61.6967 120.711 59.3239Z" fill="#418E89"/>
<path d="M108.851 58.4186C109.379 57.514 110.095 56.8739 111.161 56.6591C111.639 56.5581 112.157 56.4644 112.575 56.1553C112.445 55.1217 111.998 54.2926 111.137 53.6585C109.739 52.5975 109.287 51.0369 109.078 49.4059C108.953 48.5211 109.434 47.7803 110.002 47.1457C110.629 46.4564 111.278 45.7795 111.767 44.9989C112.56 43.7163 112.515 42.8461 111.484 41.7539C110.936 41.1608 110.317 40.6448 109.727 40.1015C109.297 39.9816 108.885 39.8567 108.456 39.7368C106.838 40.1868 105.183 40.441 103.58 40.9431C103.094 41.0838 102.499 40.9744 101.983 40.8797C100.236 40.5589 98.3811 40.6453 96.8195 39.5378C96.469 39.301 96.0938 39.109 95.9335 38.6856C95.7098 38.5624 95.4912 38.4566 95.2675 38.3335C94.9868 38.208 94.7116 38.2314 94.4543 38.3812C94.0364 38.6903 93.3601 38.8862 93.7697 39.651C94.2959 41.0774 95.2322 42.103 96.6161 42.7921C99.2547 44.1138 102.089 44.6834 104.926 45.3274C105.129 45.3811 105.345 45.4126 105.544 45.449C106.504 45.5843 106.818 46.0195 106.919 47.0805C107.14 49.1405 107.227 51.2579 107.862 53.2543C108.106 54.0296 108.128 54.7561 107.863 55.5284C107.625 56.1988 107.574 56.9281 107.802 57.6514C107.997 58.1962 108.259 58.5151 108.851 58.4186Z" fill="#8071A4"/>
<path d="M108.461 39.7543C108.89 39.8742 109.303 39.9991 109.732 40.119C108.793 38.3048 108.245 36.4148 108.55 34.3528C108.825 32.4497 107.535 31.6958 106.129 30.9943C106.123 32.0111 106.077 33.0206 105.386 33.8787C105.038 34.2992 104.99 34.7829 105.376 35.2725C105.745 35.767 105.795 36.3918 105.943 36.969C106.097 37.5636 106.465 37.7953 107.028 37.8577C108.33 38.0065 108.33 38.0065 108.392 39.3231C108.393 39.4545 108.438 39.6106 108.461 39.7543Z" fill="#CECDCE"/>
<path d="M117.893 78.6552C116.991 78.9165 116.009 78.9004 115.183 79.4218C114.555 79.9797 113.825 80.3792 113.095 80.7788C112.54 81.071 112.376 81.4759 112.596 82.1074C112.822 82.7563 113.216 82.6233 113.726 82.5693C115.248 82.3726 116.703 82.0075 117.904 80.9639C118.811 80.1372 118.818 79.5147 117.893 78.6552Z" fill="#3D3C3F"/>
<path d="M127.541 70.0508C126.794 70.324 126.237 70.8047 125.883 71.5277C125.952 72.8045 125.632 74.1002 126.034 75.356C126.139 75.7202 126.201 76.1911 126.637 76.2713C127.092 76.3464 127.403 75.9931 127.684 75.6672C128.548 74.6273 128.839 71.4793 128.217 70.3062C128.025 69.9672 127.807 69.9928 127.541 70.0508Z" fill="#3D3C3F"/>
<path d="M93.7921 39.6635C93.3998 38.8938 94.0638 38.7202 94.4767 38.3937C94.3711 38.0296 94.3126 37.633 94.1724 37.2789C94.0322 36.9248 93.8349 36.5685 93.6007 36.2792C93.1921 35.7774 92.0228 35.4396 91.7587 35.7605C91.3121 36.3598 91.5104 36.979 91.8697 37.5704C92.2016 38.132 92.8105 38.4819 92.9545 39.1732C93.1608 39.3014 93.3722 39.4469 93.5958 39.57C93.6456 39.612 93.7127 39.6489 93.7921 39.6635Z" fill="#CECDCE"/>
<path d="M52.01 58.895C51.5567 57.949 50.8924 58.2511 49.8448 57.9479C49.375 57.8072 48.8649 56.6705 48.4723 56.3274C48.6869 55.3079 49.2013 54.5187 50.1131 53.9585C51.5968 53.0175 52.1761 51.4994 52.5185 49.891C52.7155 49.0193 52.2953 48.2406 51.7793 47.5605C51.2084 46.8209 50.6142 46.0918 50.19 45.2728C49.5011 43.9278 49.6175 43.064 50.737 42.0613C51.3329 41.5158 51.9942 41.0532 52.6281 40.5608C53.0672 40.4772 53.4893 40.3871 53.9284 40.3034C55.5088 40.8872 57.143 41.279 58.7041 41.9134C59.1779 42.0943 59.7822 42.035 60.3059 41.9837C62.0785 41.8099 63.9253 42.051 65.5766 41.0773C65.9463 40.8706 66.337 40.7105 66.5318 40.3018C66.7654 40.1977 66.9926 40.1105 67.2262 40.0064C67.517 39.9048 67.7902 39.9511 68.0352 40.1219C68.4278 40.4649 69.0878 40.7168 68.616 41.445C67.9738 42.8231 66.9542 43.7673 65.5147 44.3387C62.7693 45.4359 59.8897 45.7669 57.0014 46.1718C56.7935 46.2085 56.5751 46.2217 56.3737 46.2415C55.4028 46.2961 55.0534 46.7038 54.8662 47.7531C54.4773 49.7883 54.2173 51.8919 53.4198 53.8291C53.1132 54.5817 53.0314 55.3041 53.2333 56.0961C53.4165 56.7844 53.4089 57.5158 53.1216 58.2177C52.8818 58.7446 52.5943 59.0406 52.01 58.895Z" fill="#8071A4"/>
<path d="M40.5438 58.9837C39.8198 59.2098 38.99 59.1056 38.4384 59.842C38.202 60.1576 37.8824 59.881 37.7107 59.6223C36.8871 58.4384 35.6951 58.1187 34.3253 58.2143C32.7378 58.3234 32.2633 57.7945 32.5197 56.2112C32.6205 55.5927 32.8289 54.9959 32.9466 54.3838C33.1988 53.166 32.7671 52.1704 31.8563 51.8228C30.4395 51.2821 29.4785 51.5723 28.7596 52.7473C28.606 52.9978 28.6137 53.4839 28.1703 53.4306C27.8176 53.3926 27.6909 53.0157 27.532 52.7232C27.0305 51.7589 26.8632 50.7288 26.9602 49.6644C27.0759 48.298 27.6262 47.0587 28.2543 45.8684C29.2178 44.0526 30.9503 43.3611 32.8513 43.1397C34.4477 42.9567 36.057 42.7399 37.6829 42.9353C38.973 43.0992 40.0885 42.4041 41.0626 41.6744C43.4184 39.9068 45.3493 37.7838 46.1842 34.8368C46.7147 32.9909 47.6516 31.3968 49.0519 30.0568C50.9771 28.2021 54.6247 27.7584 56.6194 29.2153C57.1181 29.5796 57.4576 30.057 57.6678 30.6203C57.8675 31.1603 57.8311 31.6101 57.3472 31.9665C55.8944 32.5329 54.5403 33.1948 54.658 35.1142C54.7918 37.1942 54.107 39.0391 53.0045 40.7633C52.372 41.2562 51.7057 41.7362 51.1173 42.2653C50 43.2689 49.883 44.1324 50.5683 45.4761C51.0008 46.3175 51.5989 47.0288 52.1504 47.761C52.681 48.4466 53.0822 49.2181 52.8849 50.0896C52.5248 51.6913 51.9624 53.2158 50.482 54.1581C49.5891 54.7255 49.0584 55.5085 48.8433 56.5279C48.4575 58.197 47.7432 59.6636 46.5189 60.8968C45.0607 62.3886 44.0586 62.3339 43 60.5C42.5153 59.5421 41.7192 58.8912 40.5438 58.9837Z" fill="#423977"/>
</svg>
