<svg width="145" height="108" viewBox="0 0 145 108" fill="none" xmlns="http://www.w3.org/2000/svg">
<g clip-path="url(#clip0)">
<path d="M72.5241 0.0480663C94.0977 0.0480663 115.671 0.0480663 137.245 0.0480663C141.255 0.0480663 144.13 2.30667 144.831 5.94957C144.952 6.53244 144.952 7.16387 144.952 7.77103C144.952 38.6143 144.952 69.4576 144.952 100.277C144.952 104.988 141.932 107.999 137.221 107.999C94.0977 107.999 50.9987 107.999 7.87561 107.999C2.94725 107.999 0.0240606 105.037 0.0240606 100.034C0.0723778 69.5304 0.120695 39.0029 -9.79946e-05 8.49961C-0.0242566 3.66669 2.94725 -0.0490779 8.52789 -0.000505797C29.8599 0.14521 51.192 0.0480663 72.5241 0.0480663ZM138.235 42.1601C138.235 31.037 138.235 20.2055 138.235 9.34962C138.235 8.11103 137.607 7.13959 136.472 6.67815C135.795 6.41101 134.974 6.36244 134.225 6.36244C93.1072 6.33815 52.0134 6.36244 10.8954 6.31386C7.9964 6.31386 6.74015 7.77103 6.74015 10.4425C6.81263 33.0285 6.78847 55.6145 6.78847 78.2005C6.78847 78.6134 6.78847 79.0263 6.78847 79.6577C7.31996 79.2448 7.63402 79.002 7.92393 78.7348C22.6124 66.2275 37.2766 53.7202 51.9892 41.2615C53.7045 39.8043 55.613 38.5414 57.5699 37.4728C61.242 35.5057 65.0349 35.6028 68.6587 37.6671C70.1565 38.5171 71.4852 39.6586 72.8623 40.6786C74.795 42.1115 76.631 43.7144 78.7087 44.9529C81.6318 46.6773 84.5792 46.313 87.285 44.2001C87.9856 43.6658 88.6378 43.0343 89.2176 42.3786C94.2668 36.8657 99.2676 31.3285 104.317 25.8398C105.138 24.9413 106.032 24.1155 106.998 23.4112C109.608 21.5169 112.434 21.2012 115.309 22.6827C116.686 23.3869 118.015 24.3098 119.174 25.3298C125.214 30.6242 131.181 35.9914 137.197 41.31C137.487 41.5529 137.776 41.7715 138.235 42.1601Z" fill="#423977"/>
<path d="M30.4399 19.502C36.9869 19.502 42.3018 24.8692 42.326 31.4993C42.326 38.1536 36.9628 43.5694 30.3674 43.5451C23.7721 43.5451 18.4089 38.1293 18.4089 31.475C18.4331 24.8206 23.7963 19.502 30.4399 19.502Z" fill="#423977"/>
</g>
<defs>
<clipPath id="clip0">
<rect width="145" height="108" fill="white"/>
</clipPath>
</defs>
</svg>
