<svg width="131" height="81" viewBox="0 0 131 81" fill="none" xmlns="http://www.w3.org/2000/svg">
<path d="M26.593 75.2556C34.9395 75.5814 43.2762 75.2359 51.6178 75.0966L102.364 73.8193C108.64 74.7391 114.951 74.4304 121.248 74.2912C123.167 74.2487 124.689 73.0072 125.79 71.2617C127.804 68.071 128.004 64.4151 128.916 60.928C130.576 54.6023 126.254 48.073 122.243 45.6201C120.861 44.7735 119.382 44.0628 118.066 43.1202C114.647 40.6686 112.225 37.6909 113.02 33.1104C113.648 29.4733 114.143 25.8179 114.947 22.2079C116.713 14.2827 114.268 8.55931 107.594 4.44713C106.074 3.50937 104.435 3.10344 102.728 3.45251C99.6974 4.06778 96.5054 4.06188 93.7397 5.75278C92.8041 6.32428 91.6849 6.37131 90.5827 6.37413C84.9781 6.38675 79.9159 4.09117 74.6776 2.61762C72.0564 1.88082 69.5173 1.11296 66.755 1.03702C62.94 0.932337 59.1832 1.54018 55.4012 1.67457C45.6073 2.02136 38.4598 7.19306 32.1664 13.8621C28.6336 17.603 27.8699 22.5398 26.9441 27.4054C25.4483 35.2782 21.8503 41.6017 13.541 44.3493C5.41232 47.0351 0.823671 52.5019 0.23678 61.2382C-0.0466223 65.4872 1.3211 68.8323 4.14787 71.8042L4.16478 71.8221C5.33152 73.0558 6.50118 74.2925 8.30542 74.5141C10.1184 74.7368 11.9438 74.9435 13.7675 75.0006C18.0433 75.1328 22.3218 75.0911 26.593 75.2556Z" fill="#EDE7F2"/>
<path d="M119.232 73.1922C119.093 73.7248 118.986 74.2295 118.847 74.762C118.173 77.8179 117.056 78.193 113.71 77.6925C108.501 76.9437 105.478 73.4836 102.457 69.9635C100.977 68.2356 99.1752 66.7267 98.0848 64.6039C96.999 69.0169 96.1037 73.4129 93.5751 77.2149C93.0698 77.1502 92.7578 76.9481 92.5162 76.4496C92.0939 75.5472 91.5438 74.6963 91.0267 73.7875C90.8749 69.4703 91.3225 65.2544 92.3387 61.1077C92.7234 59.5679 93.2022 58.0648 93.7752 56.5982C94.3841 54.9534 95.3751 54.5696 97.1003 55.2903C98.198 55.7571 99.2274 56.4301 100.291 57.015C101.632 57.8901 102.974 58.7651 104.283 59.638C106.052 61.205 107.723 62.8857 109.916 63.9396C112.655 65.9948 115.101 68.3612 117.71 70.558C118.673 71.3769 119.067 72.1569 119.232 73.1922Z" fill="#418E89"/>
<path d="M103.638 59.5784C102.285 58.6918 100.933 57.8053 99.6118 56.9209C99.3762 54.7078 98.5631 52.6074 98.3594 50.3964C98.3106 49.7523 98.2299 49.106 98.2775 48.438C99.4168 48.8827 100.551 49.5711 101.843 48.928C101.937 48.9955 102.032 49.063 102.125 49.161C101.975 50.127 102.787 50.8848 102.991 51.7532C103.107 52.2494 103.216 53.0197 103.985 52.9507C104.593 52.8706 104.893 52.342 104.812 51.6957C105.005 51.648 105.292 51.6678 105.391 51.522C107.046 49.0731 109.793 47.6758 111.698 45.4272C114.106 44.8915 116.603 44.6669 118.771 43.4739C119.585 45.5133 120.69 47.4507 121.021 49.6704C121.129 50.5017 121.047 51.2894 121.124 52.088C121.2 52.9476 121.295 52.7792 121.308 53.4657C121.465 54.3526 121.556 56.5115 121.207 59.8262C121.119 60.6612 120.925 61.9298 120.883 62.3845C120.72 65.2414 120.27 68.0786 120.331 70.9509C120.368 72.0824 120.089 73.0701 118.711 73.2802C118.544 72.2313 118.147 71.4411 117.208 70.6441C114.577 68.4184 112.11 66.0209 109.348 63.9387C111.323 61.4508 111.374 59.2879 109.508 57.115C109.333 56.4316 110.105 54.8372 108.266 55.5953C107.137 56.0667 106.096 56.8798 105.621 58.098C104.628 58.2126 103.884 58.5885 103.638 59.5784Z" fill="#8071A4"/>
<path d="M119.252 43.6194C117.069 44.8557 114.554 45.134 112.129 45.7087C110.874 45.7513 109.587 45.7917 108.333 45.802C107.497 45.809 106.762 45.5971 106.3 44.7591C105.837 43.921 106.49 43.5145 106.856 42.9593C107.457 42.0332 108.025 41.1049 108.084 39.948C108.239 38.83 108.265 37.7353 108.002 36.6208C107.244 33.2793 106.61 32.9131 104.168 32.8095C101.532 31.4348 101.206 27.5103 103.466 25.7311C108.544 21.7272 113.659 24.3369 116.975 28.2737C118.883 30.5657 120.01 33.2232 121.168 35.9473C122.691 39.5672 121.582 41.6192 119.252 43.6194Z" fill="#423977"/>
<path d="M90.9861 73.3946C91.471 74.2646 92.0197 75.1091 92.4717 76.0366C92.7127 76.5313 93.0239 76.7319 93.5279 76.7962C93.5985 77.8172 93.0868 78.0812 92.0802 77.8929C90.9475 77.6961 89.7811 77.5866 88.6491 77.3599C86.9508 77.0347 85.4699 75.5289 85.1281 73.9513C84.8731 72.7084 85.9668 71.8864 87.5719 72.1454C88.7993 72.3487 89.9249 72.844 90.9861 73.3946Z" fill="#3D3C3F"/>
<path d="M102.583 49.1784C102.489 49.1109 102.394 49.0433 102.301 48.9453C101.643 47.0073 100.466 45.4303 98.8343 44.1578C98.2191 43.1386 97.572 42.1171 96.9887 41.1001C96.713 40.5926 96.0892 39.9391 96.8656 39.5347C97.5774 39.1565 98.0402 39.8599 98.4131 40.313C99.3132 41.4435 100.148 42.6305 101.016 43.7893C101.436 44.9477 101.5 46.2953 102.99 46.8254C103.168 47.3872 103.316 47.9163 103.494 48.4781C103.388 48.9286 103.125 49.2463 102.583 49.1784Z" fill="white"/>
<path d="M104.2 32.8242C106.635 32.9614 107.269 33.3115 108.03 36.4588C108.294 37.5188 108.269 38.5589 108.116 39.6208C106.842 38.917 105.715 38.5582 105.317 37.3345C105.207 37.142 104.912 37.1497 104.841 36.916C104.758 36.6442 105.022 36.185 105.007 35.7545C104.959 35.0464 104.375 33.5716 104.2 32.8242Z" fill="#CECDCE"/>
<path d="M98.7874 44.2067C100.415 45.5071 101.59 47.081 102.247 48.9848C100.988 49.6292 99.8564 48.9419 98.6869 48.4956C98.1791 47.0287 97.926 45.5793 98.7874 44.2067Z" fill="#CECDCE"/>
<path d="M102.376 49.1913C102.921 49.2288 103.185 48.9405 103.292 48.4881C104.396 49.3304 104.168 50.8167 105.078 51.7376C105.159 52.3868 104.857 52.9484 104.246 52.9982C103.473 53.0982 103.363 52.2937 103.246 51.7953C103.042 50.923 102.224 50.1923 102.376 49.1913Z" fill="#CECDCE"/>
<path d="M102.931 46.7822C101.406 46.2487 101.342 44.898 100.953 43.7391C102.027 43.0176 102.392 43.8077 102.79 44.6001C103.19 45.3314 103.237 46.0384 102.931 46.7822Z" fill="#CECDCE"/>
<path d="M109.554 57.171C109.103 57.4129 108.808 57.8171 108.513 58.1909C107.466 59.453 107.053 59.4549 105.685 58.1782C106.158 56.9677 107.194 56.1597 108.317 55.6912C110.147 54.9075 109.347 56.4898 109.554 57.171Z" fill="#CECDCE"/>
<path d="M48.6056 24.0187C59.5057 28.5537 79.3486 39.9872 71.5197 49.4419C61.7336 61.2602 46.8895 55.5792 43.9957 48.2536C41.102 40.9279 55.6873 30.9373 86.9301 49.0306" stroke="#423977" stroke-width="1.09789" stroke-dasharray="3.66 3.66"/>
<path d="M32.2895 23.168C33.4149 23.0481 34.5388 22.9259 35.6643 22.81C36.0028 22.7749 36.0038 22.7832 35.9476 23.1261C35.9241 23.2718 36.0519 23.3154 36.1293 23.3826C37.2931 24.3945 38.4597 25.403 39.6264 26.4115C40.4089 27.088 41.19 27.7662 41.9798 28.4333C42.1988 28.6184 42.3735 28.8062 42.1992 29.0946C42.0214 29.3893 41.9207 29.7612 41.4186 29.6944C39.9891 29.5044 38.5546 29.3528 37.1219 29.1803C36.2136 29.0707 35.3059 28.9501 34.3982 28.8335C34.238 28.7984 34.0795 28.7516 33.9173 28.7292C31.9904 28.4655 30.0617 28.2095 28.1343 27.9436C26.9839 27.7845 25.8354 27.6086 24.6845 27.4473C23.1138 27.2277 21.5407 27.0178 19.97 26.7982C18.5781 26.604 17.1854 26.4085 15.7957 26.1965C15.486 26.1492 15.1359 26.1653 14.945 25.8022C14.847 25.6165 14.6607 25.7295 14.5108 25.779C14.1745 25.8218 14.2163 25.5354 14.1539 25.354C14.0877 25.1627 14.2196 25.0652 14.3663 24.9651C16.3723 23.5992 18.3749 22.2304 20.3719 20.8553C21.6558 19.9712 22.9266 19.0698 24.2113 18.187C25.1391 17.549 26.084 16.9375 27.011 16.2984C27.1969 16.1701 27.4483 16.0868 27.4661 15.7733C27.4748 15.613 27.6484 15.5792 27.8162 15.5866C28.1257 15.6004 28.3807 15.72 28.6269 15.9014C30.0797 16.9709 31.5371 18.0334 32.9944 19.0969C33.5248 19.484 33.5273 19.512 33.136 20.0635C33.0518 20.1825 32.992 20.3185 32.9209 20.4467C32.8012 20.2883 32.6621 20.3008 32.4844 20.356C30.5566 20.9498 28.6255 21.5357 26.6947 22.1206C23.8994 22.9667 21.105 23.809 18.3116 24.6556C17.9942 24.7516 17.683 24.8683 17.3691 24.9753C17.4505 25.0729 17.5138 25.093 17.5724 25.0856C19.2792 24.8574 20.9844 24.6187 22.6915 24.3977C25.891 23.9828 29.0903 23.577 32.2895 23.168ZM16.9467 25.1286C16.9423 25.1174 16.9423 25.1001 16.9343 25.0952C16.9237 25.0886 16.9079 25.0909 16.894 25.0896C16.8992 25.1061 16.9033 25.1233 16.9085 25.1398C16.9214 25.1367 16.9345 25.1328 16.9467 25.1286ZM17.1495 25.0662L17.1734 25.0891L17.1825 25.0639L17.1495 25.0662Z" fill="#423977"/>
<path d="M14.5132 25.7798C14.6631 25.7302 14.8497 25.6163 14.9474 25.803C15.1383 26.1661 15.4885 26.15 15.7981 26.1973C17.1879 26.4093 18.5805 26.6048 19.9724 26.799C21.5432 27.0186 23.1162 27.2285 24.6869 27.4481C25.8369 27.6091 26.9854 27.785 28.1368 27.9444C30.0641 28.2102 31.9919 28.466 33.9197 28.73C34.082 28.7524 34.2404 28.7992 34.4007 28.8343C34.1907 29.7121 33.9837 30.5906 33.7711 31.4668C33.6729 31.8707 33.4872 32.1006 33.0045 31.9481C31.1768 31.3741 29.3397 30.8272 27.5093 30.2606C26.0403 29.8054 24.5765 29.3332 23.1093 28.8703C21.034 28.2149 18.9586 27.5596 16.8823 26.9081C16.3984 26.7563 15.9155 26.5876 15.4204 26.483C14.9863 26.3908 14.6884 26.1788 14.5132 25.7798Z" fill="#9D98B9"/>
<path d="M32.2899 23.1679C29.0906 23.5779 25.8915 23.9827 22.6929 24.3979C20.9856 24.6199 19.2806 24.8576 17.5738 25.0858C17.515 25.0941 17.452 25.073 17.3706 24.9755C17.6845 24.8685 17.9956 24.7517 18.313 24.6557C21.1064 23.8092 23.9008 22.9669 26.6943 22.1203C28.6251 21.5354 30.5552 20.9493 32.484 20.3557C32.6616 20.3005 32.8017 20.2882 32.9204 20.4464C32.9028 20.5163 32.8851 20.5862 32.8675 20.6561C32.791 20.6998 32.7812 20.7584 32.828 20.8304C32.74 21.5332 32.429 22.1697 32.2366 22.8416C32.2009 22.9661 32.1064 23.0857 32.2899 23.1679Z" fill="#9D98B9"/>
</svg>
