<svg width="88" height="89" viewBox="0 0 88 89" fill="none" xmlns="http://www.w3.org/2000/svg">
<rect y="0.512695" width="88" height="88" rx="10" fill="#423977"/>
<path d="M61.6591 25.5127C61.6591 25.9099 61.6591 26.2154 61.6591 26.5209C61.6591 30.6913 61.6591 34.8617 61.6591 39.0321C61.6591 40.6361 62.402 41.461 64.009 41.6596C65.4947 41.8429 66.7075 41.293 67.8294 40.3458C71.2557 37.4281 76.577 39.0474 77.7746 43.3552C78.4872 45.9369 77.4714 48.6866 75.2732 50.1837C73.0294 51.7113 70.1793 51.5585 67.9962 49.9087C67.223 49.3282 66.3437 48.8241 65.4492 48.5338C64.8276 48.3353 64.0393 48.4422 63.3874 48.6102C62.023 48.9921 61.6743 49.5421 61.6743 50.978C61.6743 55.179 61.6743 59.3646 61.6743 63.5656C61.6743 63.8711 61.6743 64.1613 61.6743 64.5127C48.7424 64.5127 35.8864 64.5127 23 64.5127C23 51.528 23 38.5738 23 25.5585C23.288 25.5432 23.5458 25.528 23.7883 25.528C28.0333 25.528 32.263 25.5432 36.5079 25.5127C37.2508 25.5127 37.554 25.8182 37.7056 26.4598C38.024 27.6819 37.5085 28.629 36.7808 29.5303C34.7645 32.0356 34.34 34.8159 35.7348 37.7183C37.084 40.5292 39.4339 41.9957 42.5418 41.9498C45.6194 41.904 47.9086 40.3917 49.1972 37.5961C50.5162 34.7548 50.0765 32.0509 48.1512 29.6067C47.4993 28.7818 46.9838 27.9416 47.0899 26.857C47.1961 25.8335 47.5144 25.5433 48.515 25.5433C52.578 25.5433 56.641 25.5433 60.704 25.5433C60.992 25.5127 61.2953 25.5127 61.6591 25.5127Z" fill="white"/>
</svg>
