<svg width="329" height="60" viewBox="0 0 329 60" fill="none" xmlns="http://www.w3.org/2000/svg">
<g filter="url(#filter0_d)">
<path d="M314.206 2.0001L164.998 2.0001L15.7891 2.0001C9.84282 2.0001 4.99768 2.0001 4.99768 2.0001L4.99799 4.54075C4.99799 4.54075 9.84315 4.54075 15.7895 4.54075L136.257 4.54075C138.019 4.64073 139.781 4.74071 141.433 4.94068C145.177 5.34062 147.709 6.54044 148.7 8.54013C149.802 10.5398 149.361 13.0394 147.379 15.939C144.516 20.2383 142.974 24.8377 142.534 29.8369C141.433 40.8353 149.912 51.3337 161.914 53.5333C174.358 55.833 186.691 49.4339 190.214 38.7355C192.747 31.4366 191.536 24.4377 187.682 17.7387C187.572 17.6387 187.572 17.5388 187.462 17.3388C186.581 15.7391 185.59 14.1393 185.039 12.3396C184.488 10.8398 184.599 9.53996 185.149 8.44013C185.7 7.3403 186.801 6.54044 188.342 5.94053C189.994 5.4406 191.646 4.84071 193.408 4.84071C197.923 4.74072 196.932 4.64073 201.446 4.54075L314.206 4.54075C320.153 4.54075 324.998 4.54075 324.998 4.54075V2.0001C324.998 2.0001 320.153 2.0001 314.206 2.0001Z" fill="#fff"/>
</g>
<defs>
<filter id="filter0_d" x="0.997681" y="9.15527e-05" width="328" height="59.9999" filterUnits="userSpaceOnUse" color-interpolation-filters="sRGB">
<feFlood flood-opacity="0" result="BackgroundImageFix"/>
<feColorMatrix in="SourceAlpha" type="matrix" values="0 0 0 0 0 0 0 0 0 0 0 0 0 0 0 0 0 0 127 0"/>
<feOffset dy="2"/>
<feGaussianBlur stdDeviation="2"/>
<feColorMatrix type="matrix" values="0 0 0 0 0.501961 0 0 0 0 0.443137 0 0 0 0 0.643137 0 0 0 1 0"/>
<feBlend mode="normal" in2="BackgroundImageFix" result="effect1_dropShadow"/>
<feBlend mode="normal" in="SourceGraphic" in2="effect1_dropShadow" result="shape"/>
</filter>
</defs>
</svg>
